<?xml version="1.0" encoding="UTF-8" standalone="no"?>
<svg version="1.1" viewBox="0.00 0.00 1463.00 1433.00" id="svg347" sodipodi:docname="female-muscle-anatomy-vector.svg"
   inkscape:export-filename="female-muscle-anatomy-vector-new.svg" inkscape:export-xdpi="96" inkscape:export-ydpi="96"
   inkscape:version="1.3.2 (091e20e, 2023-11-25)" xmlns:inkscape="http://www.inkscape.org/namespaces/inkscape"
   xmlns:sodipodi="http://sodipodi.sourceforge.net/DTD/sodipodi-0.dtd" xmlns="http://www.w3.org/2000/svg"
   xmlns:svg="http://www.w3.org/2000/svg">
   <defs id="defs347" />
   <sodipodi:namedview id="namedview347" pagecolor="#ffffff" bordercolor="#000000" borderopacity="0.25"
      inkscape:showpageshadow="2" inkscape:pageopacity="0.0" inkscape:pagecheckerboard="0" inkscape:deskcolor="#d1d1d1"
      inkscape:lockguides="true" showguides="true" inkscape:export-bgcolor="#ffffff00" inkscape:zoom="0.48223486"
      inkscape:cx="819.10296" inkscape:cy="652.17185" inkscape:window-width="1920" inkscape:window-height="1080"
      inkscape:window-x="0" inkscape:window-y="0" inkscape:window-maximized="0" inkscape:current-layer="svg347" />
   <path fill="#bfbfbf"
      d="m 373.53,205.88 c -0.45333,0.42667 -0.81,0.91667 -1.07,1.47 -3.29333,7.06 -7.28,13.70667 -11.96,19.94 -2.14,2.84667 -4.41,5.19333 -6.81,7.04 -0.36158,0.27621 -0.53584,0.73316 -0.45,1.18 0.43333,2.3 0.96,4.58667 1.58,6.86 7,25.46 37.78,29.15 59.68,31.39 6.10667,0.62 12.19667,1.61 18.27,2.97 7.96,1.77333 14.17,3.97667 18.63,6.61 14.63,8.62 23.15,23.99 26.24,40.5 3.70667,19.74 5.03,39.49 3.97,59.25 -0.0526,0.96072 0.11501,1.92175 0.49,2.81 1.62,3.77333 3.20667,7.65 4.76,11.63 6.18,15.8 10.13333,32.57333 11.86,50.32 1.18,12.12 1.68,23.92667 1.5,35.42 -0.02,1.29333 0.40333,2.43333 1.27,3.42 17.89,20.25 33.57,44.36 41.14,69.73 2.5,8.36667 5.17333,17.90333 8.02,28.61 4.34,16.3 12.18,33.04 22.68,47.08 3.98,5.31333 7.70667,10.38667 11.18,15.22 0.59333,0.83333 1.35333,1.58333 2.28,2.25 0.28,0.2 0.59,0.3 0.93,0.3 4.22667,-0.0133 8.26333,1.50667 12.11,4.56 6.02,4.78 12.17,10.11667 18.45,16.01 1.51,1.42 3.29,2.63 5.25,3.29 9.2,3.11 19.48,8.17 17.09,19.99 -0.32,1.61 -1.49,2.31 -3.05,2.48 -4.18667,0.46 -8.50667,-0.5 -12.96,-2.88 -4.75333,-2.53333 -8.58667,-4.99667 -11.5,-7.39 -0.55333,-0.45333 -1.12667,-0.48 -1.72,-0.08 l -0.24,0.16 c -0.30375,0.208 -0.35544,0.63562 -0.11,0.91 5.52667,6.25333 9.60333,12.61667 12.23,19.09 4.1,10.08667 7.07333,20.87333 8.92,32.36 0.56667,3.52 0.71667,7.10333 0.45,10.75 -0.34667,4.75333 -3.07,6.62333 -8.17,5.61 -0.77333,-0.16 -1.02333,0.13 -0.75,0.87 0.75333,2.03333 1.44333,4.07 2.07,6.11 1.56,5.04667 -0.2,8.07 -5.28,9.07 -3.49,0.69 -5.42,-2.17 -7.04,-4.75 -0.35421,-0.55015 -1.1808,-0.475 -1.43,0.13 -1.26667,3.16 -3.75333,4.66 -7.46,4.5 -2.69,-0.11 -4.64,-2.56 -5.81,-4.72 -1.54,-2.84667 -3.06,-5.96667 -4.56,-9.36 -0.72,-1.63333 -1.17,-1.56 -1.35,0.22 -0.04,0.44667 -0.04,0.88667 0,1.32 0.0506,0.45209 -0.0911,0.90266 -0.39,1.24 -6.1,6.88 -17.12,-14.55 -18.83,-18.14 -5.52,-11.58 -10.07333,-23.92333 -13.66,-37.03 -2.86,-10.44 -5.67667,-21.13333 -8.45,-32.08 -1.38,-5.43 -3.45,-10.62 -6.82,-15.28 -15.64,-21.66 -32.51,-41.59 -48.94,-62.08 -10.83333,-13.5 -19.95333,-26.60333 -27.36,-39.31 -4.35333,-7.44667 -7.92667,-14.98 -10.72,-22.6 -2.62,-7.14 -4.03667,-14.75667 -4.25,-22.85 -0.06,-2.17 -1.76,-6 -3.08,-8.08 -1.58667,-2.49333 -2.99,-5.05667 -4.21,-7.69 -7.74667,-16.80667 -13.65,-34.53333 -17.71,-53.18 -1.79333,-8.22 -2.94,-15.92 -3.44,-23.1 -0.02,-0.26 -0.0933,-0.50333 -0.22,-0.73 -0.27333,-0.50667 -0.47333,-0.48 -0.6,0.08 -1.26667,5.63333 -3.42667,10.71333 -6.48,15.24 -1.95,2.89 -4.68,5.3 -7.05,7.94 -1.00667,1.12667 -1.63667,2.41333 -1.89,3.86 -0.28667,1.63333 -0.44,3.18667 -0.46,4.66 -0.32667,32.01333 -1.04333,63.59667 -2.15,94.75 -0.1,2.86 0.11,5.76 0.63,8.7 0.94,5.33 4.48,9.32 7.59,13.42 28.13,37.13 39.68,83.8 42.02,130.13 1.55333,30.82667 0.26333,61.91 -3.87,93.25 -3.72667,28.26 -8.91333,56.45333 -15.56,84.58 -6.84667,28.98667 -14.71333,57.40667 -23.6,85.26 -1.72,5.39333 -3.00667,10.55333 -3.86,15.48 -2.69333,15.53333 -4.80333,30.7733 -6.33,45.72 -0.42667,4.1533 -0.60333,7.9733 -0.53,11.46 0.0667,3.3133 0.56667,6.8767 1.5,10.69 5.34,21.8067 9.62333,42.4733 12.85,62 1.64667,9.9467 2.82333,20.4633 3.53,31.55 1.09333,17.08 -0.91667,33.71 -6.03,49.89 -4.02,12.69 -10.84,31.49 -15.29,47.24 -5.78,20.44 -10.58667,41.91 -14.42,64.41 -0.91333,5.3467 -1.38,10.3533 -1.4,15.02 -0.0267,5.0533 -0.14333,10.22 -0.35,15.5 -0.12,3.09 0.5,6 1.74,8.88 2.88,6.73 5.31,15.28 2.81,22.38 -2.82,8 4.32,16.54 8.4,22.9 3.28,5.1067 5.71,10.0833 7.29,14.93 1.9,5.85 8.39,13.01 13.6,16.02 5.4,3.11 7.35,6.81 7,13.31 -0.24,4.33 -3.01,4.97 -6.62,5.27 -7.24,0.5933 -14.49333,1.0133 -21.76,1.26 h -26.32 c -6.06667,-0.1867 -12.12,-0.4867 -18.16,-0.9 -3.61333,-0.2533 -5.87,-0.5367 -6.77,-0.85 -6.82,-2.36 -6.74,-17.36 -6.44,-23.15 0.40667,-8.0133 1.49333,-15.8467 3.26,-23.5 1.32,-5.74 2.15,-11.64 2.97,-17.44 0.64,-4.61 0.34,-9.01 0.02,-13.63 -0.32667,-4.6333 -0.007,-9.1933 0.96,-13.68 0.27333,-1.26 0.40667,-2.6733 0.4,-4.24 -0.12,-20.3133 -0.66333,-40.95 -1.63,-61.91 -0.51333,-11.08 -1.24333,-21.3933 -2.19,-30.94 -0.24667,-2.4467 -0.48333,-4.12 -0.71,-5.02 -2.64,-10.4267 -4.75,-19.4267 -6.33,-27 -5.83,-28 -8.22,-56.65 -5.12,-86.07 0.81,-7.69 2.63,-17.18 3.77,-25.59 0.82,-6.0933 1.79667,-12.4767 2.93,-19.15 1.72667,-10.1533 2.95333,-19.9667 3.68,-29.44 0.24667,-3.2667 0.18667,-7.8433 -0.18,-13.73 -0.8,-12.77 -0.72,-25.5 -0.94,-38.64 -0.08,-4.77 0.66,-9.26 -0.1,-14.08 -1.01,-6.35 -1.99,-12.68 -2.63,-19.09 -1.76,-17.5 -3.09333,-31.96333 -4,-43.39 -2.92,-36.9 -4.94333,-71.84333 -6.07,-104.83 -0.62,-18.13333 -0.83,-32.25333 -0.63,-42.36 0.23,-11.76 0.52,-22.64 2.96,-33.39 0.3,-1.31 1.07,-2.44 1.58,-3.7 0.21633,-0.51724 -0.21543,-1.07235 -0.77,-0.99 -5.92,0.89333 -11.68667,0.89 -17.3,-0.01 -0.50066,-0.0855 -0.88038,0.44258 -0.64,0.89 1.22,2.32667 2.01,4.64 2.37,6.94 0.99333,6.25333 1.60667,12.63 1.84,19.13 0.87,24.2 0.11,49.22 -1.04,73.76 -1.77333,37.8 -4.43667,76.32667 -7.99,115.58 -0.87333,9.67333 -2.03333,19.13333 -3.48,28.38 -0.55333,3.52667 -0.79667,7.11333 -0.73,10.76 0.2,11.4933 0.0733,23.2633 -0.38,35.31 -0.37,9.95 -1.13,19.25 -0.15,28.95 0.70667,7.04 1.66,14.1833 2.86,21.43 1.86,11.23 3.05,20.33 4.64,30.47 1.44,9.1533 2.34667,15.75 2.72,19.79 1.86,19.88 1.4,39.8167 -1.38,59.81 -2,14.42 -4.83333,28.62 -8.5,42.6 -1.35333,5.1667 -2.25667,9.95 -2.71,14.35 -0.58,5.6133 -1.02,11.07 -1.32,16.37 -1.40667,25.2467 -2.17333,50.6367 -2.3,76.17 -0.007,1.0667 0.1,2.0967 0.32,3.09 0.94,4.1867 1.30667,7.6833 1.1,10.49 -0.4,5.5 -0.49667,10.37 -0.29,14.61 0.18,3.78 1.45333,11.2467 3.82,22.4 2.32,10.94 3.14,21.2167 2.46,30.83 -0.23,3.23 -0.99,6.23 -2.37,9.18 -1.12,2.4067 -3.07,3.7633 -5.85,4.07 -6.41333,0.72 -12.86333,1.1733 -19.35,1.36 h -32.5 c -6.38667,-0.3133 -12.76333,-0.75 -19.13,-1.31 -2.99,-0.26 -5.8,-0.23 -6.38,-3.95 -0.89,-5.79 0.46,-11.19 5.65,-14.03 3.87333,-2.1133 7.71,-5.6967 11.51,-10.75 1.39333,-1.8467 2.39,-3.6933 2.99,-5.54 2.15,-6.58 6.15,-14.18 10.8,-20.3 3.01333,-3.9733 4.75333,-8.46 5.22,-13.46 0.14667,-1.5867 -0.03,-3.33 -0.53,-5.23 -2.08,-7.87 0.88,-16.6 4.1,-23.94 0.75,-1.74 0.92,-4.92 0.84,-6.79 -0.22,-5.6333 -0.35667,-11.2933 -0.41,-16.98 -0.0333,-4.0267 -0.50667,-8.5367 -1.42,-13.53 -4.55,-24.93 -9.62,-49.15 -17.21,-73.21 -3.40667,-10.7933 -7.04667,-21.86 -10.92,-33.2 -6.66667,-19.4867 -9.09333,-39.4767 -7.28,-59.97 1.06667,-11.9667 2.67667,-23.9133 4.83,-35.84 3.06667,-17.02 6.78333,-34.3733 11.15,-52.06 1.02,-4.14 1.58,-7.7567 1.68,-10.85 0.11333,-3.6133 -0.0567,-7.4867 -0.51,-11.62 -1.76667,-16.2533 -4.03333,-32.40667 -6.8,-48.46 -0.41333,-2.42 -0.96667,-4.71 -1.66,-6.87 -9.93333,-30.95333 -19.14,-64.33 -27.62,-100.13 -1.60667,-6.76 -3.05667,-13.43 -4.35,-20.01 -3.02667,-15.4 -5.79667,-32.35667 -8.31,-50.87 -4.47333,-32.97333 -6.08,-64.13333 -4.82,-93.48 1.96,-45.94 12.04,-90.97 37.47,-128.29 2.24,-3.3 4.7,-6.4 7.12,-9.46 4.15,-5.26 5.95,-10.32 5.77,-16.87 -0.93333,-32.91333 -1.63667,-65.25667 -2.11,-97.03 -0.03,-1.94 -0.52,-3.58 -0.98,-5.42 -0.33333,-1.32 -0.91,-2.49333 -1.73,-3.52 -2.11,-2.64 -4.96,-4.81 -6.7,-7.55 -2.83333,-4.43333 -4.92333,-9.26 -6.27,-14.48 -0.44667,-1.74 -0.80333,-1.72333 -1.07,0.05 -0.21,1.4 -0.01,2.99 -0.19,4.42 -3.26,25.04 -10.27667,49.07667 -21.05,72.11 -2.51,5.36 -6.73,10.25 -7.04,16.61 -0.88,17.8 -8.25,33.44 -17.63,48.71 -6.92667,11.28 -14.61,22.25333 -23.05,32.92 -2.86667,3.61333 -5.78667,7.31667 -8.76,11.11 -0.48667,0.62 -1.03,1.17667 -1.63,1.67 -0.61333,0.50667 -1.13,1.1 -1.55,1.78 -0.54667,0.9 -1.16333,1.77 -1.85,2.61 -12.59,15.4 -25.29,30.72 -36.86,46.89 -5.45,7.62 -7.87,18.03 -9.84,26.83 -3.593333,16.11333 -8.14,31.19333 -13.64,45.24 -2.493333,6.38667 -5.346667,12.43 -8.56,18.13 -1.8,3.2 -10.72,18.37 -15.54,12.26 -0.68,-0.86 -0.25,-2.07 -0.49,-3.02 -0.326667,-1.25333 -0.753333,-1.28667 -1.28,-0.1 -1.83,4.14 -5.34,14.31 -10.67,14.48 -3.546667,0.10667 -5.953333,-1.43333 -7.22,-4.62 -0.209662,-0.51969 -0.897493,-0.62508 -1.24,-0.19 -0.76,0.94667 -1.49,1.90333 -2.19,2.87 -2.2,3.05 -6.34,2.41 -9.1,0.4 -3.57,-2.59 -0.63,-10.37 0.9,-13.45 0.236418,-0.45407 -0.157897,-0.97982 -0.66,-0.88 -2.81,0.51 -6.84,0.27 -7.75,-3 -1.3,-4.73 -0.81,-9.94 0.05,-14.85 1.773333,-10.17333 4.316667,-19.64333 7.63,-28.41 3.18,-8.41333 7.573333,-15.49667 13.18,-21.25 0.322884,-0.3286 0.340328,-0.84758 0.04,-1.19 -0.293333,-0.34 -0.703333,-0.50667 -1.23,-0.5 -0.278815,6e-5 -0.546543,0.0916 -0.76,0.26 -4.246667,3.34667 -9.05,6.25667 -14.41,8.73 -1.546667,0.70667 -3.236667,1.18333 -5.07,1.43 -3.24,0.44 -7.32,1.02 -8.34,-3.06 v -5.04 c 1.89,-8.36 10.71,-11.9 18.05,-14.48 1.214197,-0.42225 2.32994,-1.08557 3.28,-1.95 4.853333,-4.38 9.59,-8.60667 14.21,-12.68 4.72,-4.16 11.45,-9.69 17.55,-8.89 0.42,0.0533 0.796667,-0.0467 1.13,-0.3 0.92,-0.7 1.69,-1.49333 2.31,-2.38 2.833333,-4.10667 5.91,-8.36 9.23,-12.76 3.766667,-4.99333 6.703333,-9.25 8.81,-12.77 6.546667,-10.92667 11.606667,-22.59667 15.18,-35.01 2.026667,-7.06667 3.946667,-14.08667 5.76,-21.06 5.72,-22.05333 15.62667,-42.48333 29.72,-61.29 4.66,-6.22 9.65667,-12.45667 14.99,-18.71 0.39308,-0.46353 0.60294,-1.054 0.59,-1.66 -0.28,-12.94667 0.27,-25.82667 1.65,-38.64 2.22667,-20.61333 7.64667,-40.31667 16.26,-59.11 0.53333,-1.15333 0.76,-2.34333 0.68,-3.57 -1.06,-16.84667 -0.0433,-35.03667 3.05,-54.57 3.2,-20.24 13.06,-40.07 33.4,-47.77 5.15333,-1.95333 10.72667,-3.49333 16.72,-4.62 1.53333,-0.28667 7.27,-1.04667 17.21,-2.28 7.33333,-0.90667 14.61333,-2.13667 21.84,-3.69 9.63333,-1.85333 18.05333,-5.90667 25.26,-12.16 0.35333,-0.30667 0.64,-0.65667 0.86,-1.05 0.61333,-0.13333 1.14,-0.47333 1.58,-1.02 4.60667,-5.78667 7.37667,-12.60667 8.31,-20.46 0.0467,-0.42667 -0.10333,-0.76 -0.45,-1 -3.21333,-2.21333 -6.00333,-5.19 -8.37,-8.93 -0.12667,-0.20667 -0.29667,-0.25333 -0.51,-0.14 -0.12,0.0667 -0.20333,0.13667 -0.25,0.21 -0.11333,-0.71333 -0.36667,-1.38 -0.76,-2 -6.65333,-10.54 -11.87,-21.78 -15.65,-33.72 -0.14124,-0.44693 -0.52604,-0.77342 -0.99,-0.84 -4.45,-0.65 -6.81,-5.29 -8.11,-9.16 -2.44667,-7.28667 -3.74667,-15 -3.9,-23.14 -0.0333,-1.54 0.38667,-2.85667 1.26,-3.95 0.24667,-0.30667 0.56333,-0.44667 0.95,-0.42 0.94667,0.08 1.88667,0.10333 2.82,0.07 5.42,-0.17 7.25,-5.92 8.02,-10.27 1.31,-7.45 2.25,-14.74 4.33,-22.04 0.17452,-0.60386 0.64526,-1.07836 1.25,-1.26 10.82,-3.22 21.32,-7.26333 31.5,-12.13 8.3,-3.96 16.2,-9.09 23.95,-14.33 4.34667,-2.933333 9.10667,-4.106667 14.28,-3.52 10.03,1.15 20.04,4.55 29.47,7.81 0.67736,0.236152 1.23278,0.741083 1.54,1.4 1.14667,2.5 1.93667,5.07333 2.37,7.72 1.68,10.24 3.37667,19.77333 5.09,28.6 0.87,4.45 3.85,17.51 9.55,17.9 1.3,0.0933 2.66,0.0167 4.08,-0.23 0.42,-0.0733 0.81,0.007 1.17,0.24 1.26,0.8 1.89,1.95333 1.89,3.46 0.03,6.92 -2.08,32.36 -11.81,33.17 -0.47681,0.0359 -0.88461,0.36051 -1.03,0.82 -1.62,5.23333 -3.67333,10.6 -6.16,16.1 -0.06,0.13333 -0.0233,0.23 0.11,0.29 z"
      id="path187"
      style="display:inline;opacity:1;fill:#ffffff;fill-opacity:1;fill-rule:nonzero;stroke:#cdcdcd;stroke-width:3.1;stroke-dasharray:none;stroke-opacity:1"
      inkscape:label="front-body-border"
      sodipodi:nodetypes="cccccccccccccccccccccccccccccccccccccccccccccccccccccccccccccccccccccccccccccccccccccccccccccccccccccccccccccsccccccccccccccccccccccccccccccccccccccccccccccccccccccccccccccccccccccccccccccccccccccccccccccccccccccccccccccccccccccccccccscccccccccccccccccccccccccccccccccc" />
   <path fill="#bfbfbf"
      d="m 1194.44,206.54 c -3.1933,7.99333 -7.4233,15.23333 -12.69,21.72 -1.88,2.31333 -3.8467,4.26333 -5.9,5.85 -0.3221,0.24773 -0.4893,0.65057 -0.44,1.06 3.86,33.54 38.8,35.87 65.04,39.05 5.0133,0.60667 10.6067,1.62667 16.78,3.06 6.38,1.47333 11.8067,3.52333 16.28,6.15 14.57,8.53 23.01,23.61 26.16,40.09 3.7067,19.35333 5.04,39.21333 4,59.58 -0.05,0.96 0.16,2.23 0.57,3.12 9.9467,21.58667 15.71,44.73333 17.29,69.44 0.68,10.58667 0.91,19.95333 0.69,28.1 -0.02,0.86667 0.24,1.61 0.78,2.23 20.32,23.24 35.91,47.88 43.7,77 2.9133,10.89333 5.7433,20.80667 8.49,29.74 0.66,2.16667 1.44,4.27667 2.34,6.33 1.21,2.76 2.01,5.57 3.3,8.27 4.7267,9.88 8.63,16.84333 11.71,20.89 4.8733,6.39333 9.5,12.74333 13.88,19.05 0.6933,1 1.65,1.84 2.87,2.52 0.3,0.16667 0.6233,0.22667 0.97,0.18 4.82,-0.67 9.68,2.86 13.34,5.7 5.3867,4.2 10.4167,8.55 15.09,13.05 0.97,0.94 1.8,2.19 2.81,3.29 0.3867,0.42 0.87,0.71333 1.45,0.88 5.7467,1.69333 10.6367,3.94333 14.67,6.75 2.88,2.01333 4.6733,4.89667 5.38,8.65 v 5.01 c -0.52,1.79333 -1.6,2.74667 -3.24,2.86 -8.83,0.63 -17.91,-4.96 -24.24,-10.42 -0.64,-0.55333 -1.33,-0.62333 -2.07,-0.21 -0.28,0.15333 -0.45,0.41667 -0.51,0.79 -0.057,0.35981 0.054,0.72465 0.3,0.99 5.3933,5.72667 9.5833,12.27333 12.57,19.64 4.7133,11.63333 7.6733,23.37333 8.88,35.22 0.3333,3.31333 0.1933,6.36 -0.42,9.14 -0.83,3.72 -5.18,3.88 -8.31,3.66 -0.52,-0.0333 -0.6533,0.18 -0.4,0.64 1.5,2.73 4.15,9.73 2.03,12.51 -1,1.30667 -2.52,2.16 -4.56,2.56 -4.54,0.9 -5.48,-2.28 -7.85,-5.13 -0.3467,-0.42 -0.6133,-0.37 -0.8,0.15 -1.2067,3.36667 -3.7533,5.02 -7.64,4.96 -5.04,-0.09 -8.71,-10.14 -10.3,-14.11 -0.1733,-0.44667 -0.48,-0.77667 -0.92,-0.99 -0.4333,-0.20667 -0.6367,-0.07 -0.61,0.41 0.05,0.96 0.3,2.27 -0.22,3.1 -2.45,4 -7.21,0.07 -9.25,-2.45 -6.33,-7.84 -10.51,-16.48 -14.43,-25.97 -7.25,-17.58 -11.84,-37.32 -16.85,-56.41 -1.8,-6.87333 -3.2867,-11.19667 -4.46,-12.97 -6.3,-9.52 -14.4333,-20.36333 -24.4,-32.53 -15.11,-18.44 -29.91,-36.58 -44.05,-56.48 -8.8867,-12.51333 -15.8167,-24.99667 -20.79,-37.45 -2.9,-7.26667 -4.54,-15.05333 -4.92,-23.36 -0.09,-2.06 -0.75,-5.35 -1.64,-6.88 -5.3667,-9.18 -10.0867,-19.62333 -14.16,-31.33 -5.5933,-16.06667 -9.42,-30.98 -11.48,-44.74 -0.5467,-3.64 -0.91,-7.31333 -1.09,-11.02 -0.02,-0.32082 -0.3917,-0.48585 -0.63,-0.28 -0.1467,0.12 -0.2433,0.27667 -0.29,0.47 -1.2067,4.74 -3,9.11667 -5.38,13.13 -2.37,4.01 -6.03,7.14 -9.19,10.5 -0.7933,0.84667 -1.1967,1.84 -1.21,2.98 -0.38,33.86 -1.11,67.63667 -2.19,101.33 -0.1067,3.46667 0.3633,6.71667 1.41,9.75 1.67,4.83 5.75,8.89 8.75,13.05 19.15,26.59 30.52,57.65 35.84,89.85 6.62,39.99 5.98,81.18 1.39,121.55 -3.84,33.71333 -10.1567,68.23667 -18.95,103.57 -6.83,27.43 -13.74,52.3 -21.61,77.01 -1.6733,5.24 -3.05,11.17 -4.13,17.79 -2.6533,16.18 -4.6633,31.1133 -6.03,44.8 -0.51,5.14 -0.61,10.65 0.59,15.86 5.77,24.99 11.41,49.88 14.89,74.82 3.08,22 3.85,44.08 -1.95,65.56 -1.4733,5.4533 -3.1167,10.8133 -4.93,16.08 -7.4333,21.5733 -13.27,40.8667 -17.51,57.88 -3.1933,12.82 -6.2867,27.8233 -9.28,45.01 -0.8533,4.9 -1.2833,9.47 -1.29,13.71 0,5.1267 -0.1567,10.5767 -0.47,16.35 -0.11,2.14 0.27,4.76 1.1,6.78 2.72,6.61 5.78,14.73 4.14,21.82 -0.7333,3.1933 -1.0333,5.4033 -0.9,6.63 0.5,4.5133 1.6433,8.1033 3.43,10.77 4.73,7.07 9.6,13.97 12.12,21.89 0.82,2.56 1.88,4.7267 3.18,6.5 3.39,4.64 7.22,8.38 11.93,11.17 4.9267,2.9133 6.7967,7.6333 5.61,14.16 -0.18,0.9867 -0.6533,1.7833 -1.42,2.39 -0.8133,0.6467 -1.7933,1.0233 -2.94,1.13 -7.8467,0.7333 -15.72,1.2367 -23.62,1.51 h -29.64 c -6.9533,-0.1733 -13.86,-0.7167 -20.72,-1.63 -11.07,-1.47 -6.82,-32.77 -5.45,-39.86 1.26,-6.5067 2.58,-13.45 3.96,-20.83 1.32,-7.07 0.48,-13.46 0.26,-20.34 -0.1,-3.0067 0.2633,-6.4067 1.09,-10.2 0.26,-1.1733 0.3833,-2.57 0.37,-4.19 -0.1667,-20.2733 -0.7433,-42.1 -1.73,-65.48 -0.36,-8.34 -1.49,-16.99 -2.01,-25.27 -0.24,-3.7667 -0.8367,-7.5333 -1.79,-11.3 -2.8933,-11.5067 -5.1867,-21.89 -6.88,-31.15 -5.23,-28.74 -6.77,-58.03 -2.4,-86.44 2.09,-13.61 3.96,-27.35 6.27,-41.17 1.75,-10.47 3.26,-21.86 2.95,-33.05 -0.14,-4.9733 -0.3267,-10.2533 -0.56,-15.84 -0.4933,-11.92 -0.62,-23.23 -0.38,-33.93 0.087,-3.87333 -0.1633,-7.57667 -0.75,-11.11 -1,-6.06 -1.7367,-11.46667 -2.21,-16.22 -3.42,-34.68 -6.0767,-69.28 -7.97,-103.8 0,-0.0533 -0.38,-6.34667 -1.14,-18.88 -0.4333,-7.26 -0.7467,-14.53 -0.94,-21.81 -0.63,-23.97 -1.5,-48.33 0.89,-71.9 0.4533,-4.42 1.46,-8.21 3.02,-11.37 0.36,-0.73333 0.1367,-1.04333 -0.67,-0.93 -5.8,0.84667 -11.6067,0.83667 -17.42,-0.03 -0.5299,-0.077 -0.9242,0.47626 -0.67,0.94 1.1333,2.14 1.9167,4.39667 2.35,6.77 1.12,6.10667 1.78,12.78 1.98,20.02 0.52,19.33333 0.3867,38.51 -0.4,57.53 -2.02,49.02667 -5.3733,97.3 -10.06,144.82 -0.52,5.35 -1.42,10.71 -2.3,15.99 -0.5267,3.13333 -0.71,6.57 -0.55,10.31 0.22,4.96 0.2333,11.2 0.04,18.72 -0.24,9.2533 -0.53,18.5133 -0.87,27.78 -0.2,5.5333 -0.1433,10.4367 0.17,14.71 0.97,13.22 3.44,26.19 5.52,39.19 0.95,5.97 1.46,11.9 2.57,17.8 0.8133,4.32 1.46,8.6767 1.94,13.07 1.96,18.0733 2.0133,35.9033 0.16,53.49 -1.8,17.0067 -5.0233,34.5367 -9.67,52.59 -2.95,11.44 -3.63,22.52 -4.25,34.04 -1.2133,22.8933 -1.9,46.4567 -2.06,70.69 -0.013,2.6333 0.2133,5.2833 0.68,7.95 0.7533,4.2333 0.8467,9.2767 0.28,15.13 -0.34,3.5667 -0.2167,7.1567 0.37,10.77 1.0467,6.4333 2.1533,12.37 3.32,17.81 2.22,10.4 3.1733,20.2067 2.86,29.42 -0.14,4 -1.31,13.61 -5.91,15.24 -1.0133,0.3533 -2.0233,0.5833 -3.03,0.69 -6.26,0.6667 -12.55,1.0867 -18.87,1.26 H 1067 c -7.78,-0.2333 -15.53,-0.7367 -23.25,-1.51 -1.86,-0.19 -3.74,-1.13 -4.17,-3.14 -1.18,-5.57 0.09,-11.6 5.24,-14.4 4.46,-2.4267 8.6867,-6.4067 12.68,-11.94 1.1067,-1.54 1.9233,-3.2267 2.45,-5.06 1.3933,-4.8133 3.7333,-9.6767 7.02,-14.59 4.27,-6.37 10.95,-15.11 8.31,-23.7 -2.33,-7.59 0.58,-16.42 3.66,-23.53 0.8467,-1.9533 1.2233,-4.17 1.13,-6.65 -0.2467,-6.8467 -0.4367,-13.7033 -0.57,-20.57 -0.033,-1.8667 -0.22,-3.81 -0.56,-5.83 -0.53,-3.2 -0.78,-6.73 -1.93,-9.76 -0.57,-1.5 -0.46,-3.15 -0.75,-4.77 -4.4733,-25.64 -10.98,-51.18 -19.52,-76.62 -3.36,-10.0067 -6.23,-18.8433 -8.61,-26.51 -7.77,-24.97 -6.7,-50.73 -2.58,-76.67 3.0467,-19.1533 6.7333,-37.8133 11.06,-55.98 1.1133,-4.6733 2.1367,-9.5867 3.07,-14.74 0.7,-3.8333 0.7667,-8.9667 0.2,-15.4 -1.2667,-14.4467 -3.38,-29.87333 -6.34,-46.28 -1,-5.51333 -2.38,-11.08667 -4.14,-16.72 -8.6467,-27.59333 -16.36,-55.65333 -23.14,-84.18 -8.5133,-35.84 -14.49,-70.90333 -17.93,-105.19 -0.4067,-4.04 -0.95,-11.70667 -1.63,-23 -1.22,-20.12 -1.02,-40.2 0.6,-60.24 3.52,-43.7 15.84,-88.99 43.59,-123.06 4.52,-5.55 6.08,-10.55 5.88,-17.54 -1.0333,-36.71333 -1.7333,-70.39333 -2.1,-101.04 -0.013,-1.10667 -0.4167,-2.11333 -1.21,-3.02 -2.98,-3.41 -6.55,-6.22 -9.01,-10.18 -2.5267,-4.07333 -4.3433,-8.49 -5.45,-13.25 -0.027,-0.10667 -0.07,-0.20667 -0.13,-0.3 -0.073,-0.10667 -0.1467,-0.21 -0.22,-0.31 -0.38,-0.51333 -0.5867,-0.45333 -0.62,0.18 -0.1867,3.36 -0.5267,6.65667 -1.02,9.89 -3.18,20.91333 -9.0933,41.41667 -17.74,61.51 -2.1133,4.92 -4.57,9.73 -7.37,14.43 -1.38,2.31 -2.25,5.72 -2.35,8.5 -0.38,9.91333 -3.2067,20.34667 -8.48,31.3 -7.4,15.34 -17.09,29.69 -27.13,42.67 -11.44,14.81333 -24.26,30.94 -38.46,48.38 -8.59333,10.55333 -14.80667,18.88 -18.64,24.98 -2.16,3.44 -3.79333,7.21667 -4.9,11.33 -2.61333,9.71333 -5.20667,19.74667 -7.78,30.1 -1.21,4.83 -2.87,9.61 -4.37,14.42 -3.3,10.52667 -7.59333,20.83 -12.88,30.91 -1.67,3.2 -10.9,19.01 -16.08,13.75 -1.3,-1.32 -0.2,-2.61 -0.65,-3.85 -0.0533,-0.14 -0.15333,-0.22667 -0.3,-0.26 -0.33012,-0.0685 -0.66217,0.10802 -0.79,0.42 -1.68,3.98 -3.62333,7.83333 -5.83,11.56 -0.94,1.58 -2.4,2.82 -4.28,3.05 -3.94,0.48 -6.68,-1.13 -8.22,-4.83 -0.16296,-0.39045 -0.6952,-0.44195 -0.93,-0.09 -1.99,2.98 -3.89,6.12 -8.16,5 -2.69,-0.7 -5.36,-2.74 -4.91,-5.86 0.48,-3.3 1.34667,-6.37 2.6,-9.21 0.18054,-0.42201 -0.17743,-0.87656 -0.63,-0.8 -5.15,0.91 -8.19,-0.82 -8.39,-6.31 -0.14667,-4.06667 0.12333,-8.13667 0.81,-12.21 1.31333,-7.76667 3.32,-15.66 6.02,-23.68 3.48667,-10.37333 8.34,-18.76333 14.56,-25.17 0.38644,-0.4062 0.40798,-1.03511 0.05,-1.46 l -0.17,-0.21 c -0.54667,-0.65333 -1.14333,-0.70333 -1.79,-0.15 -4.04667,3.45333 -8.69333,6.37333 -13.94,8.76 -3.02,1.37333 -6.48333,1.99333 -10.39,1.86 -3.46,-0.12 -3.45,-3.61 -3.44,-6.16 0.02,-4.34667 1.84333,-7.82667 5.47,-10.44 3.33333,-2.40667 6.65333,-4.09333 9.96,-5.06 1.32,-0.38 2.59,-0.92333 3.81,-1.63 1.28,-0.73333 2.43,-1.57 3.45,-2.51 6.56667,-6.04 12.46,-11.28 17.68,-15.72 3.81333,-3.24 8.22333,-4.90333 13.23,-4.99 0.32334,-0.007 0.63475,-0.1269 0.88,-0.34 1.22,-1.1 2.23,-2.23 3.03,-3.39 2.92667,-4.25333 5.90333,-8.36333 8.93,-12.33 11.3,-14.82 19.21,-31.53 23.99,-49.16 2.43333,-8.99333 4.79667,-17.43667 7.09,-25.33 5.16667,-17.75333 13.26,-34.42 24.28,-50 5.38667,-7.60667 11.22333,-15.08 17.51,-22.42 0.78,-0.91 1.44,-1.79 1.43,-3.05 -0.04,-7.18667 0.15333,-15.32333 0.58,-24.41 1.2,-25.27333 6.98,-49.66 17.34,-73.16 0.47,-1.06 0.82,-2.02 0.74,-3.23 -1.05333,-16.56667 -0.03,-34.73667 3.07,-54.51 2.8,-17.8 10.26,-34.46 25.25,-43.96 4.9733,-3.16 11.2333,-5.6 18.78,-7.32 9.1267,-2.08667 18.7767,-3.55 28.95,-4.39 4.42,-0.36667 10.0367,-1.44667 16.85,-3.24 10.1122,-2.54586 26.2145,-13.0245 27.26,-14.15 4.52,-6.03333 7.2267,-12.83 8.12,-20.39 0.031,-0.22254 -0.061,-0.44444 -0.24,-0.58 -3.2333,-2.39333 -6.22,-5.54333 -8.96,-9.45 l -0.39,-12.23 c -0.01,-0.33918 0.3411,-0.57024 0.65,-0.43 15.8831,7.16 15.9397,7.22024 19.73,8.28 4.4042,0.92173 8.3867,0.98 12.58,1.47 4.92,0.4 9.14,0.52 12.66,0.36 1.7667,-0.08 3.9733,-0.45333 6.62,-1.12 l 12.92,-3.7 c 9.58,-3.26667 19.2933,-6.93333 29.14,-11 z"
      id="path188"
      style="display:inline;fill:#ffffff;fill-opacity:1;stroke:#cdcdcd;stroke-width:3.1;stroke-linecap:butt;stroke-linejoin:miter;stroke-dasharray:none;stroke-opacity:1;paint-order:normal"
      inkscape:label="back-body-border"
      sodipodi:nodetypes="cccccccccccccccsccccccccccccccccccccccccccccccccccccccccccccccccccccccccccccccscccccccccccccccccccscccccsccsccccccccccccccccccccccccccccccccccccccccccccccccccccccccccccccsccccccccccccccscccsccccccccccccccccccccccccccccccccccccccccccccccccccccccc" />
   <path fill="#454545"
      d="m 301.06,294.13 c -3.51,-6.07 -6.56,-12.38 -9.23,-18.87 q -1.42,-3.46 -1.56,-6.85 -0.36,-8.56 0.86,-17.74 a 0.44,0.44 0 0 1 0.53,-0.37 q 0.46,0.1 0.79,0.48 4.65,5.35 7.86,11.31 c 6.42,11.93 11.65,25.19 18.44,37.61 a 5.28,5.26 30.8 0 1 0.66,2.59 L 319.3,321 a 0.79,0.79 0 0 1 -0.79,0.79 c -1.83,0 -3.44,-1.1 -4.21,-2.73 q -5.68,-11.89 -13.24,-24.93 z"
      id="path193" style="display:inline;stroke:none" inkscape:label="front-neck" />
   <path fill="#595959"
      d="m 274.27,0 h 7.5 q 18.53,1.85 32.68,8.03 c 12.49,5.46 24.03,14.94 27.55,28.42 a 2.51,2.49 89.9 0 0 1.78,1.79 c 62.05,16.11 59.99,92.38 46.77,140.06 q -2.56,9.24 -6.49,17.96 c -2.53,5.64 -4.61,7.93 -10.53,9.62 l -0.26,-0.1 q -0.2,-0.09 -0.11,-0.29 3.73,-8.25 6.16,-16.1 a 1.18,1.17 -83.3 0 1 1.03,-0.82 c 9.73,-0.81 11.84,-26.25 11.81,-33.17 q 0,-2.26 -1.89,-3.46 -0.54,-0.35 -1.17,-0.24 -2.13,0.37 -4.08,0.23 c -5.7,-0.39 -8.68,-13.45 -9.55,-17.9 q -2.57,-13.24 -5.09,-28.6 -0.65,-3.97 -2.37,-7.72 a 2.7,2.65 86.8 0 0 -1.54,-1.4 C 357.04,93.05 347.03,89.65 337,88.5 q -7.76,-0.88 -14.28,3.52 c -7.75,5.24 -15.65,10.37 -23.95,14.33 q -15.27,7.3 -31.5,12.13 a 1.86,1.85 -0.3 0 0 -1.25,1.26 c -2.08,7.3 -3.02,14.59 -4.33,22.04 -0.77,4.35 -2.6,10.1 -8.02,10.27 q -1.4,0.05 -2.82,-0.07 -0.58,-0.04 -0.95,0.42 -1.31,1.64 -1.26,3.95 0.23,12.21 3.9,23.14 c 1.3,3.87 3.66,8.51 8.11,9.16 a 1.22,1.22 0 0 1 0.99,0.84 q 5.67,17.91 15.65,33.72 0.59,0.93 0.76,2 0.62,15.66 -0.31,31.34 -0.33,0.59 -0.86,1.05 -10.81,9.38 -25.26,12.16 -3.21,-0.66 -6.4,-1 -2.96,-0.31 -6.35,-1.14 -4.1,-0.99 -8.5,-0.85 -19.12,0.63 -38.2,1.5 -7.58,0.35 -14.57,-0.86 a 1.74,1.73 -87.9 0 1 -1.44,-1.56 c -0.81,-8.45 2.45,-17.97 5.45,-25.54 7.91,-19.94 16.52,-39.52 21.72,-59.8 q 3.8,-14.84 3.36,-29.24 -0.62,-20.32 -5.16,-56.52 -0.99,-7.83 -0.58,-13.57 1.97,-27.81 13.7,-48.73 C 220.38,22.24 229.09,15.56 238.9,9.81 Q 254.97,0.39 274.27,0 Z m 61.27,35.35 c -9.93,-7.61 -23.32,-7.23 -32.78,1.35 q -1.11,1.01 0.36,0.73 c 10.93,-2.09 20.77,-2.59 31.88,-0.82 q 2.75,0.43 0.54,-1.26 z"
      id="path181" style="display:inline;stroke:none" inkscape:label="front-hair" />
   <path fill="#bfbfbf"
      d="m 302.76,36.7 c 9.46,-8.58 22.85,-8.96 32.78,-1.35 q 2.21,1.69 -0.54,1.26 c -11.11,-1.77 -20.95,-1.27 -31.88,0.82 q -1.47,0.28 -0.36,-0.73 z"
      id="path185" style="display:inline;stroke:none" inkscape:label="front-hair" />
   <path fill="#454545"
      d="m 328.11,315.98 c -1.39,2.8 -1.85,5.31 -5.45,5.84 a 0.92,0.91 85.6 0 1 -1.04,-0.9 q -0.09,-9.72 -0.08,-18.23 0,-1.57 0.75,-3.05 6.71,-13.16 12.25,-25.58 c 3.49,-7.85 8.12,-17.17 14.42,-23.56 q 0.19,-0.18 0.45,-0.19 a 0.43,0.42 -3.6 0 1 0.44,0.38 q 0.95,7.84 0.93,15.61 -0.02,4.3 -1.34,7.91 -3.03,8.27 -7.56,16.2 -8.05,14.11 -13.77,25.57 z"
      id="path194" style="display:inline;stroke:none" inkscape:label="front-neck" />
   <path fill="#454545"
      d="m 332.05,262.18 c -0.78,8.99 -5.96,18.06 -11.27,26.44 a 0.35,0.35 0 0 1 -0.59,0.01 q -6.05,-9.29 -9.58,-18.59 -1.68,-4.42 -1.62,-8.04 0.06,-3.36 4.03,-3.55 6.44,-0.31 14.09,-0.13 c 2.41,0.05 5.19,0.99 4.94,3.86 z"
      id="path195" style="display:inline;stroke:none" inkscape:label="front-neck" />
   <path fill="#454545"
      d="m 241.01,294.28 c 12.76,-8.28 25.21,-16.07 39.54,-21.44 2.58,-0.96 6.02,0.04 5.63,3.51 q -0.44,3.92 -1.62,5.3 c -6.48,7.58 -12.74,12.81 -19.24,19.14 -1.03,1.01 -1.87,1.15 -3.25,1.03 q -8.13,-0.69 -18.79,-2.97 -2.99,-0.65 -2.7,-3.86 0.05,-0.46 0.43,-0.71 z"
      id="path196" style="display:inline;stroke:none" inkscape:label="front-neck" />
   <path fill="#454545"
      d="m 366.31,275.29 c 12,4.97 22.67,11.96 33.55,18.94 q 0.51,0.33 0.54,0.94 c 0.08,1.63 -0.71,3.2 -2.44,3.59 q -9.65,2.18 -18.62,2.99 c -1.26,0.11 -2.4,0.24 -3.39,-0.7 q -5.03,-4.78 -10.97,-10.25 -6.53,-6.01 -8.56,-9.16 -1.87,-2.89 -1.63,-6.77 0.03,-0.49 0.35,-0.85 c 3.04,-3.4 7.94,-0.07 11.17,1.27 z"
      id="path197" style="display:inline;stroke:none" inkscape:label="front-neck" />
   <path fill="#454545"
      d="m 343.58,306.54 c 1.42,-5.58 3.9,-10.86 7.19,-15.57 a 0.69,0.68 -50.1 0 1 1.04,-0.1 c 3.9,3.84 9.01,11.14 8.89,17.13 a 1.07,1.06 79.1 0 1 -0.65,0.97 q -5.44,2.34 -12.5,2.38 c -2.39,0.01 -4.57,-2.43 -3.97,-4.81 z"
      id="path205" style="display:inline;stroke:none" inkscape:label="front-neck" />
   <path fill="#454545"
      d="m 290.15,290.93 c 3.28,4.65 5.62,9.8 7.15,15.32 0.7,2.53 -1.37,5.04 -3.97,5.05 q -6.56,0.04 -11.88,-2.03 a 2.07,2.06 14.4 0 1 -1.3,-2.18 c 0.77,-5.99 4.87,-11.91 8.89,-16.23 a 0.72,0.71 -41.3 0 1 1.11,0.07 z"
      id="path204" style="display:inline;stroke:none" inkscape:label="front-neck" />
   <path fill="#454545"
      d="M 470.13,355.96 C 463.5,338.45 454.92,322.09 443.6,307.63 q -8.16,-10.43 -18.47,-18.02 a 0.95,0.94 33.2 0 1 -0.26,-1.22 c 3.34,-5.94 13.06,-3.27 17.74,-0.68 13.57,7.5 23.02,17.38 27.32,32.28 q 3.99,13.8 4.29,33.5 0.02,0.68 -0.47,1.17 -1.06,1.07 -2.71,1.71 a 0.71,0.71 0 0 1 -0.91,-0.41 z"
      id="path200" style="display:inline;stroke:none" inkscape:label="front-deltoids" />
   <path fill="#454545"
      d="m 463.02,370.48 c -23.85,1.37 -44.22,-11.24 -52.35,-33.91 q -2.31,-6.45 -3.64,-14.34 -2.64,-15.63 -3.89,-27.26 -0.28,-2.56 2.36,-2.63 1.96,-0.05 4.36,1.61 c 25.95,18.03 49.33,43.22 53.78,75.78 q 0.1,0.71 -0.62,0.75 z"
      id="path207" style="display:inline;stroke:none" inkscape:label="front-deltoids" />
   <path fill="#454545"
      d="m 215.94,289.45 c -21.5,15.97 -35.81,41.69 -45.18,66.64 a 0.54,0.54 0 0 1 -0.75,0.3 c -1.36,-0.68 -2.91,-1.32 -2.88,-3.16 q 0.36,-18.38 4.6,-33.36 c 4.12,-14.55 12.32,-23.54 25.35,-31.51 5.06,-3.09 15.01,-5.79 18.99,0.41 a 0.51,0.51 0 0 1 -0.13,0.68 z"
      id="path201" style="display:inline;stroke:none" inkscape:label="front-deltoids" />
   <path fill="#454545"
      d="m 233,326.79 c -5.53,27.66 -26.78,45.52 -55.22,43.68 a 0.54,0.54 0 0 1 -0.5,-0.61 c 4.48,-32.74 28.09,-58.38 54.53,-76.41 q 2.3,-1.57 4.86,-0.86 a 1.61,1.61 0 0 1 1.18,1.72 Q 236,311.81 233,326.79 Z"
      id="path206" style="display:inline;stroke:none" inkscape:label="front-deltoids" />
   <path fill="#454545"
      d="m 333.98559,84.905706 c 18.21278,1.634629 31.69605,8.136487 37.2945,12.907787 5.05164,4.305277 7.19576,45.031667 12.65256,51.693107 1.8636,2.27501 8.59028,-1.54865 8.92968,2.02054 0.963,10.12704 -1.13955,23.87461 -5.01774,34.09876 -2.76635,7.29296 -5.63968,2.08994 -7.32662,6.61326 -4.20041,11.26291 -13.37526,37.43537 -39.7435,47.10729 -18.23028,5.87857 -27.73171,4.95957 -42.38166,-0.61061 -10.53425,-7.41801 -26.32238,-15.61151 -35.48901,-45.82179 -2.15595,-7.10532 -5.07953,-2.63217 -8.24698,-7.1806 -8.2816,-11.89228 -6.24233,-24.37427 -6.11257,-33.09312 1.24002,-3.08768 8.39807,0.42491 9.86574,-4.98496 1.75809,-6.48033 5.74751,-21.52642 6.67934,-30.11758 42.80886,-10.2119 49.53647,-34.194904 68.89626,-32.632084 z"
      id="path211-1" style="display:inline;fill:#c8c8c8;fill-opacity:1;stroke:none;stroke-width:0.981655"
      sodipodi:nodetypes="csssssccsscscc" inkscape:label="front-head" />
   <path fill="#454545"
      d="m 215.31,402.8 c 3.26,-19.61 9.28,-38.69 19.81,-54.85 q 13.83,-21.23 37.68,-27.16 c 4.19,-1.04 8.16,-1.75 12.65,-1.52 q 12.07,0.63 26.16,3.99 1.78,0.43 1.87,2.25 1.29,25.82 3.16,54.8 0.99,15.38 0.3,27.45 -0.37,6.41 -1.94,10.48 c -1.58,4.08 -6.16,7.97 -9.72,10.84 -4.33,3.5 -10.61,4.16 -16,3.9 q -10.92,-0.53 -23.26,-4.83 c -17.71,-6.16 -33.56,-14.26 -50.09,-24.02 a 1.31,1.29 20.5 0 1 -0.62,-1.33 z"
      id="path210" style="display:inline;stroke:none" inkscape:label="front-chest" />
   <path fill="#454545"
      d="m 363.91,319.81 c 13.87,2.63 26.6,9.35 35.84,20.13 14.46,16.89 22.21,40.73 25.93,63.05 q 0.11,0.67 -0.48,1.03 -23.28,13.86 -44.52,22.12 c -11.73,4.57 -25.54,8.27 -37.94,6.2 -5.84,-0.97 -14.69,-8.68 -16.85,-14.18 q -1.62,-4.13 -2.04,-13.18 -0.45,-9.71 0.29,-21.75 1.69,-27.64 3.41,-58.27 a 1.18,1.16 -22 0 1 0.33,-0.76 q 0.76,-0.78 1.88,-1.05 11.52,-2.78 22.73,-3.71 6.58,-0.54 11.42,0.37 z"
      id="path211" style="display:inline;stroke:none" inkscape:label="front-chest" />
   <path fill="#454545"
      d="m 155.35,437.19 c 0.88,-13.89 5.09,-26.01 11.66,-38.24 4.28,-7.95 13.01,-13.06 21.68,-14.64 q 5.04,-0.91 8.47,-1.31 c 3.81,-0.44 9.89,1.7 10.16,6.4 q 0.6,10.54 -0.27,19.31 c -1.87,18.75 -10.06,34.69 -22.69,48.75 q -8.64,9.63 -17.84,18.84 a 1.95,1.9 16.8 0 1 -0.98,0.51 q -3.19,0.6 -7.01,-0.16 c -1.52,-0.3 -2.45,-1.78 -2.7,-3.22 -0.63,-3.64 -1.32,-7.25 -1.31,-10.96 q 0.05,-12.9 0.83,-25.28 z"
      id="path218" style="display:inline;stroke:none" inkscape:label="front-biceps" />
   <path fill="#454545"
      d="m 478.52,408.27 q 5.57,13 6.67,24.56 1.21,12.62 1.22,28.51 0,5.95 -1.27,12.12 c -0.81,3.98 -5.47,3.81 -8.54,3.62 q -1.7,-0.11 -3.27,-1.75 c -13.93,-14.57 -28.48,-28.44 -35.35,-48.06 -4.33,-12.36 -5.34,-25.85 -4.21,-39.01 q 0.06,-0.73 0.51,-1.3 c 2.72,-3.44 6.57,-4.44 11.44,-3.76 q 7.25,1.01 11.78,2.52 9.47,3.16 14.86,10.89 3.02,4.33 6.16,11.66 z"
      id="path219" style="display:inline;stroke:none" inkscape:label="front-biceps" />
   <path fill="#454545"
      d="m 442.12,446.42 q 12.14,25.77 33.26,43.55 1.47,1.24 -0.14,2.3 l -0.63,0.42 a 4.39,4.37 45.8 0 1 -4.92,-0.08 q -8.08,-5.68 -15.21,-13.9 c -9.9,-11.44 -19.12,-25.17 -21.69,-39.38 q -0.62,-3.4 1.39,-5.43 0.44,-0.44 0.99,-0.15 1.54,0.81 2.17,2.22 2.35,5.31 4.78,10.45 z"
      id="path228" style="display:inline;stroke:none" inkscape:label="front-triceps" />
   <path fill="#454545"
      d="m 203.67,452.99 c -7.1,14.55 -18.61,30.01 -32.29,39.49 q -2.32,1.61 -4.85,0.35 l -0.31,-0.15 q -2.42,-1.22 -0.37,-2.98 c 17.2,-14.83 28.72,-32 37.23,-52.62 q 0.8,-1.93 2.34,-3.04 a 1.28,1.28 0 0 1 1.8,0.31 q 1.35,1.95 0.97,4.41 -1.1,7.22 -4.52,14.23 z"
      id="path229" style="display:inline;stroke:none" inkscape:label="front-triceps" />
   <path fill="#454545"
      d="m 234.32,446.92 c -0.55,-2.95 -0.73,-5.84 -1.94,-8.63 q -4.84,-11.24 -8.61,-21.89 -1.12,-3.17 1.19,-0.73 c 6.09,6.44 10.93,13.52 16.12,20.74 a 1.71,1.68 28.7 0 1 0.33,1.09 q -0.53,11.15 -1.88,22.64 -0.27,2.38 -1.24,0.18 -2.52,-5.75 -3.97,-13.4 z"
      id="path220" style="display:inline;stroke:none" inkscape:label="front-obliques" />
   <path fill="#454545"
      d="m 417.44,415.21 c -2.14,7.47 -5.47,14.6 -8.52,22.06 q -1.36,3.31 -1.79,6.59 -1.11,8.53 -4.58,16.68 -0.79,1.86 -1.07,-0.14 -1.42,-10.38 -1.9,-22.98 a 1.58,1.57 -28.9 0 1 0.29,-1 q 6.57,-9.46 12.8,-17.21 1.87,-2.32 4.3,-4.31 0.73,-0.59 0.47,0.31 z"
      id="path221" style="display:inline;stroke:none" inkscape:label="front-obliques" />
   <path fill="#454545"
      d="m 259.53,441.27 c -6.09,-0.94 -15.24,-7.47 -17.83,-12.96 a 1.96,1.95 -46.6 0 1 -0.04,-1.54 c 0.68,-1.67 2.51,-1.45 3.82,-0.88 q 8.66,3.77 17.36,6.42 a 0.45,0.45 0 0 1 0.31,0.35 q 0.79,4.96 -2.71,8.32 -0.38,0.37 -0.91,0.29 z"
      id="path226" style="display:inline;stroke:none" inkscape:label="front-obliques" />
   <path fill="#454545"
      d="m 393.51,426.7 q 1.7,-0.72 3.57,-1.16 a 1.83,1.83 0 0 1 1.91,0.73 c 0.66,0.94 0.41,2.29 -0.25,3.15 q -6.32,8.23 -15.71,11.52 -3.03,1.06 -4.1,-1.97 -1.12,-3.14 -1.26,-3.53 -1.02,-2.87 1.9,-3.71 6.45,-1.87 13.94,-5.03 z"
      id="path227" style="display:inline;stroke:none" inkscape:label="front-obliques" />
   <path fill="#454545"
      d="m 252.02,456.3 c -3.08,-1.43 -6.59,-6.27 -8.84,-9.51 q -1.03,-1.49 -0.89,-3.31 a 1.39,1.38 -88.2 0 1 1.35,-1.28 q 2.27,-0.04 4.18,0.73 4.36,1.77 9.23,3.14 0.54,0.15 0.58,0.71 0.4,6.12 -1.21,11.67 a 0.35,0.35 0 0 1 -0.56,0.18 q -1.73,-1.34 -3.84,-2.33 z"
      id="path232" style="display:inline;stroke:none" inkscape:label="front-obliques" />
   <path fill="#454545"
      d="m 384.22,445.83 c 4.32,-0.61 8.05,-3.04 12.37,-3.63 q 1.44,-0.19 1.87,1.19 0.52,1.66 -0.54,3.18 c -4.17,5.96 -7.23,9.14 -12.91,11.89 a 0.38,0.38 0 0 1 -0.53,-0.24 q -1.53,-5.28 -1.13,-11.45 a 1.03,1.01 88.3 0 1 0.87,-0.94 z"
      id="path233" style="display:inline;stroke:none" inkscape:label="front-obliques" />
   <path fill="#454545"
      d="m 242.67,456.5 c 3.65,1.14 7.61,3.78 10.54,6.08 q 2.32,1.82 2.25,4.78 l -0.21,8.13 q -0.04,1.79 -1.45,0.68 -5.7,-4.52 -10.18,-10.21 c -1.95,-2.48 -2.49,-5.57 -2.19,-8.64 a 0.96,0.96 0 0 1 1.24,-0.82 z"
      id="path234" style="display:inline;stroke:none" inkscape:label="front-obliques" />
   <path fill="#454545"
      d="m 398.41,456.38 a 0.8,0.8 0 0 1 1.09,0.63 c 0.86,5.62 -1.96,9.16 -5.73,13.05 q -3.65,3.78 -7.3,6.56 a 0.41,0.41 0 0 1 -0.66,-0.3 q -0.29,-4.61 -0.24,-8.98 0.03,-3.34 2.9,-5.44 4.69,-3.42 9.94,-5.52 z"
      id="path235" style="display:inline;stroke:none" inkscape:label="front-obliques" />
   <path fill="#454545"
      d="m 246.6,490.48 c -6.03,-4.05 -7.7,-15.15 -7.34,-21.92 a 0.29,0.29 0 0 1 0.5,-0.19 c 4.79,4.87 9.23,10.01 14.82,13.93 a 1.71,1.7 17.7 0 1 0.72,1.39 l -0.03,11.84 a 0.6,0.6 0 0 1 -0.96,0.47 q -4.04,-3.05 -7.71,-5.52 z"
      id="path236" style="display:inline;stroke:none" inkscape:label="front-obliques" />
   <path fill="#454545"
      d="m 401.76,469.17 c 0.19,6.21 -1.1,14.25 -5.22,19.11 -2.62,3.1 -6.7,5.34 -10.07,7.78 q -0.73,0.53 -0.74,-0.38 l -0.07,-12.12 q 0,-0.59 0.46,-0.96 8.07,-6.31 14.53,-13.82 1.06,-1.24 1.11,0.39 z"
      id="path237" style="display:inline;stroke:none" inkscape:label="front-obliques" />
   <path fill="#454545"
      d="m 257.8,616.66 c -4.79,-0.24 -10.33,-3.88 -14.25,-6.47 -3.22,-2.12 -4.01,-14.52 -4.21,-18.14 q -0.65,-12.12 -0.53,-21.74 0.32,-25.23 0.51,-50.71 c 0.03,-4.43 0.42,-8.84 0.73,-13.1 q 0.3,-4 1.6,-7.53 0.76,-2.05 2.82,-1.27 c 12.29,4.68 12.69,15.09 12.12,26.28 q -0.16,3.03 0.13,5.86 2.02,19.75 1.8,41.33 -0.05,4.7 0.76,9.52 1.4,8.43 2.19,17.36 0.85,9.42 -2.51,17.86 a 1.18,1.17 -77.7 0 1 -1.16,0.75 z"
      id="path244" style="display:inline;stroke:none" inkscape:label="front-obliques" />
   <path fill="#454545"
      d="m 397.15,610.37 c -3.94,2.47 -9.2,6.06 -13.86,6.26 a 1.49,1.48 77.9 0 1 -1.43,-0.93 q -3.33,-8.47 -2.36,-18.41 0.73,-7.6 1.89,-14.77 1,-6.17 0.99,-11.23 c -0.02,-13.26 0.27,-26.67 1.74,-39.85 q 0.47,-4.28 0.19,-8.9 c -0.66,-10.78 0.81,-21.31 12.66,-24.94 a 1.78,1.77 69.5 0 1 2.14,0.98 q 1,2.27 1.34,4.92 1.19,9.27 1.26,20.24 0.16,23.43 0.38,48.3 c 0.09,11.08 -0.18,22.85 -2.37,33.89 -0.34,1.72 -0.99,3.45 -2.57,4.44 z"
      id="path245" style="display:inline;stroke:none" inkscape:label="front-obliques" />
   <path fill="#454545"
      d="m 261.73,482.62 c 0.12,-10.88 -0.33,-22.8 7.93,-31.04 10.43,-10.39 25.75,-12.91 39.95,-10.63 q 0.47,0.08 0.45,0.54 l -0.87,24.33 a 0.96,0.95 88.3 0 1 -0.86,0.92 q -8.51,0.88 -17.53,2.35 c -11.22,1.83 -20.06,5.16 -28.09,13.92 q -1,1.08 -0.98,-0.39 z"
      id="path230" style="display:inline;stroke:none" inkscape:label="front-abs" />
   <path fill="#454545"
      d="m 378.34,483.09 c -8.04,-8.87 -17.3,-12.26 -29.19,-14.16 q -8.48,-1.35 -16.49,-2.17 a 1.05,1.04 2.2 0 1 -0.93,-1 l -0.83,-24.24 q -0.02,-0.53 0.51,-0.61 18.35,-2.62 31.52,4.43 14.18,7.59 15.53,22.29 0.76,8.32 0.7,15.15 -0.01,1.2 -0.82,0.31 z"
      id="path231" style="display:inline;stroke:none" inkscape:label="front-abs" />
   <path fill="#454545"
      d="m 354.08,475.63 c 16.7,6.15 32.39,19.94 21.71,39.55 a 0.9,0.9 0 0 1 -1.05,0.43 c -13.38,-3.92 -27.7,-3.22 -41.96,-2.05 a 0.9,0.9 0 0 1 -0.97,-0.78 c -1.62,-12.74 -1.1,-26.27 -1.03,-38.85 a 0.48,0.47 86.4 0 1 0.4,-0.46 q 11.86,-1.91 22.9,2.16 z"
      id="path238" style="display:inline;stroke:none" inkscape:label="front-abs" />
   <path fill="#454545"
      d="m 283.92,476.78 q 12.55,-5.43 25.84,-3.32 0.36,0.06 0.36,0.42 0.41,19.6 -0.86,38.86 a 0.91,0.91 0 0 1 -1,0.85 c -13.44,-1.32 -28.43,-1.82 -41.54,1.88 q -1.32,0.37 -1.93,-0.86 c -9,-18.41 3.35,-31 19.13,-37.83 z"
      id="path239" style="display:inline;stroke:none" inkscape:label="front-abs" />
   <path fill="#454545"
      d="m 300.31,556.68 q -4.15,-2.21 -8.98,-2.91 -13.66,-2 -27.37,-1.31 a 0.95,0.95 0 0 1 -0.97,-0.72 q -2.73,-10.93 -1.37,-23.2 0.2,-1.78 1.77,-2.92 c 6.36,-4.65 14.69,-8.3 22.33,-8.94 q 12.38,-1.05 23.44,4.26 a 2.06,2.06 0 0 1 1.17,1.89 q -0.3,18.75 -1.38,35.86 -0.03,0.52 -0.55,0.61 c -2.7,0.45 -5.69,-1.34 -8.09,-2.62 z"
      id="path254" style="display:inline;stroke:none" inkscape:label="front-abs" />
   <path fill="#454545"
      d="m 349.65,553.77 c -5.34,0.78 -9.22,3.16 -13.94,5.24 q -1.59,0.69 -3.28,0.24 a 0.64,0.63 -83.8 0 1 -0.47,-0.59 q -1.23,-19.64 -1.28,-36.09 a 1.7,1.68 -13.4 0 1 0.95,-1.53 c 15.64,-7.64 31.83,-5.42 45.86,4.48 0.94,0.67 1.65,1.44 1.78,2.61 q 1.39,12.16 -1.2,23.23 -0.25,1.07 -1.34,1.03 -13.86,-0.54 -27.08,1.38 z"
      id="path255" style="display:inline;stroke:none" inkscape:label="front-abs" />
   <path fill="#454545"
      d="m 263.89,560.38 c 18.37,-2.6 32.63,0.35 44.32,15.16 q 0.72,0.91 0.91,2.02 0.98,5.72 1.19,10.92 2.01,48.7 2.07,81.21 0.01,2.91 -2.63,5.03 c -2.77,2.21 -10.61,5.88 -13.52,2.38 -6.1,-7.32 -10.49,-16.08 -14.05,-25.36 q -14.5,-37.75 -18.65,-78.2 -0.6,-5.83 -0.33,-12.39 0.03,-0.68 0.69,-0.77 z"
      id="path264" style="display:inline;stroke:none" inkscape:label="front-abs" />
   <path fill="#454545"
      d="m 362.23,642.32 c -4.21,12.26 -9.35,24.52 -17.49,34.79 q -0.9,1.12 -2.2,1.22 -6.54,0.54 -11.69,-3.91 c -1.34,-1.16 -2.37,-2.61 -2.35,-4.44 q 0.27,-32.33 1.7,-73.01 0.36,-10.37 1.51,-19.31 0.12,-0.89 0.67,-1.6 c 11.52,-15 26.64,-18.71 44.72,-15.65 a 0.85,0.84 -86 0 1 0.71,0.83 q 0.06,12.43 -1.93,25.22 -4.56,29.34 -13.65,55.86 z"
      id="path265" style="display:inline;stroke:none" inkscape:label="front-abs" />
   <path fill="#454545"
      d="m 540.63,578.72 c 5.89,18.68 13.76,35.38 21.55,52.65 q 2.61,5.79 4.88,12.9 0.81,2.52 -0.89,0.5 c -7.48,-8.88 -12.5,-17.92 -17.97,-29.24 q -6.73,-13.92 -15.23,-25.62 -8.17,-11.25 -17.48,-23.63 c -15.23,-20.26 -27.78,-45.5 -32.6,-70.62 q -1.21,-6.31 -1.13,-11.97 0.01,-1.19 1.06,-0.64 c 10.4,5.42 18.51,14.3 25.31,24.31 13.82,20.33 24.84,47.05 32.5,71.36 z"
      id="path240" style="display:inline;stroke:none" inkscape:label="front-forearm" />
   <path fill="#454545"
      d="m 478.46,543.49 c -4.04,-2.35 -8.89,-4.3 -13.28,-6.25 -2.13,-0.95 -1.9,-3.18 -2.11,-5.15 q -1.32,-12.65 0.43,-23.9 a 1.38,1.38 0 0 1 1.54,-1.16 c 1.68,0.21 3.26,0.93 4.5,2.12 q 12.39,11.96 22.31,25.05 c 2.67,3.51 10.26,13.94 8.99,18.38 a 1.51,1.51 0 0 1 -1.8,1.06 q -5.3,-1.25 -8.83,-3.31 -5.39,-3.14 -11.75,-6.84 z"
      id="path246" style="display:inline;stroke:none" inkscape:label="front-forearm" />
   <path fill="#454545"
      d="m 480.72,568.04 c -3.26,-5.55 -5.96,-11.12 -7.24,-17.31 q -0.33,-1.61 0.58,-2.51 a 1.03,1.03 0 0 1 1.57,0.16 c 13.24,19.66 27,40.11 41.05,58.18 11.56,14.88 25.47,28 38.8,41.13 q 0.56,0.55 1.06,1.21 0.78,1.05 -0.44,0.58 -3.39,-1.29 -6.75,-4.08 -19.67,-16.3 -37.87,-35.97 -17.53,-18.94 -30.76,-41.39 z"
      id="path261" style="display:inline;stroke:none" inkscape:label="front-forearm" />
   <path fill="#454545"
      d="m 484.61,555.07 c 11.21,1.91 17.39,8.95 24.45,17.26 18.64,21.97 34.4,44.56 47.76,69.37 q 1.9,3.52 3.32,6.62 0.61,1.33 -0.43,0.3 -42.24,-42.1 -75.48,-92.97 -0.48,-0.73 0.38,-0.58 z"
      id="path263" style="display:inline;stroke:none" inkscape:label="front-forearm" />
   <path fill="#454545"
      d="m 158.49,493 c -4.72,28.27 -19.05,55.5 -36.58,78.04 q -10.8,13.89 -20.36,28.46 -4.33,6.6 -7.59,13.38 c -5.52,11.5 -11.24,22.8 -19.41,32.11 q -1.49,1.7 -0.81,-0.46 c 3.77,-11.82 9.38,-23.48 14.74,-35.02 3.82,-8.21 7.5,-17.64 10.42,-26.75 7.62,-23.71 16.99,-47.77 29.34,-68.38 7.41,-12.37 17.14,-24.67 29.9,-31.38 a 0.72,0.71 -14.7 0 1 1.05,0.61 q 0.12,4.42 -0.7,9.39 z"
      id="path241" style="display:inline;stroke:none" inkscape:label="front-forearm" />
   <path fill="#454545"
      d="m 176.77,536.74 c -5.58,2.64 -11.34,4.68 -16.45,7.91 -5.83,3.68 -11.93,7.82 -18.84,8.99 a 1.21,1.21 0 0 1 -1.41,-1.13 c -0.29,-5.42 4.57,-12.34 7.66,-16.52 q 10.15,-13.75 23.71,-26.94 c 1.35,-1.32 3.26,-2.11 5.16,-1.83 a 1.02,1.02 0 0 1 0.86,0.86 q 2.03,13.42 -0.05,27.79 a 1.12,1.12 0 0 1 -0.64,0.87 z"
      id="path247" style="display:inline;stroke:none" inkscape:label="front-forearm" />
   <path fill="#454545"
      d="m 85.85,647.42 q 11.51,-11.53 23.19,-23.33 6.63,-6.71 16.74,-19.55 c 13.51,-17.18 26.63,-37.24 39.52,-56.02 a 1.08,1.08 0 0 1 1.85,0.11 q 0.51,0.96 0.26,2.09 c -1.73,8.15 -5.44,14.39 -10.55,22.73 q -11.14,18.18 -25.7,34.1 -18.98,20.74 -39.21,37.61 -2.7,2.25 -6.02,3.82 -0.28,0.13 -0.57,0.24 -1.42,0.54 -1.26,-0.09 0.03,-0.14 0.14,-0.23 0.8,-0.67 1.61,-1.48 z"
      id="path260" style="display:inline;stroke:none" inkscape:label="front-forearm" />
   <path fill="#454545"
      d="m 80.93,647.88 c 14.1,-28.26 32.44,-54.05 52.98,-78.01 6.28,-7.32 12.52,-13.04 22.3,-14.76 a 0.44,0.44 0 0 1 0.44,0.67 q -33.59,51.14 -75.12,92.53 -1.62,1.61 -0.6,-0.43 z"
      id="path262" style="display:inline;stroke:none" inkscape:label="front-forearm" />
   <path fill="#454545"
      d="m 572.57,717.95 c -4.99,-6.62 -7.75,-14.53 -9.42,-22.45 q -3.74,-17.75 -2.3,-36.07 0.04,-0.54 0.55,-0.72 6.91,-2.55 14.55,-4.31 a 3.01,2.98 -33.7 0 1 2.4,0.47 q 2.39,1.67 4.36,4.26 11.12,14.61 17.14,24.22 2.19,3.48 3.91,8.26 c 1.42,3.93 2.9,6.43 -1.05,8.84 -6.91,4.23 -11.6,9.71 -16.7,15.64 q -2.2,2.56 -5.58,4.02 -4.71,2.02 -7.86,-2.16 z"
      id="path278" style="display:inline;stroke:none" inkscape:label="front-hands" />
   <path fill="#454545"
      d="m 629.7,692.91 q -0.88,0.05 -1.63,-0.39 -16.99,-9.79 -30.39,-19.09 -5.44,-3.78 -8.34,-10.22 a 1.71,1.66 45.9 0 1 0,-1.38 c 0.82,-1.77 3.4,-2.74 5.14,-1.47 6.84,4.98 13.95,9.43 20.22,14.76 2.49,2.13 4.62,4.61 7.54,6.13 q 5.16,2.68 10.13,5.06 1.59,0.76 2.51,2.34 a 1.98,1.97 56.7 0 1 -0.53,2.58 q -2.03,1.52 -4.65,1.68 z"
      id="path283" style="display:inline;stroke:none" inkscape:label="front-hands" />
   <path fill="#454545"
      d="m 619.38,741.59 c -5.55,-10.95 -9.91,-22.4 -14.42,-34.16 q -0.76,-1.97 0.82,-3.38 1.39,-1.24 2.48,-2.21 1.76,-1.58 2.8,0.54 8.21,16.69 14.65,32.42 2.73,6.68 2.32,13.6 -0.1,1.72 -1.83,1.98 a 1.61,1.58 -24.2 0 1 -1.45,-0.54 q -2.91,-3.38 -5.37,-8.25 z"
      id="path289" style="display:inline;stroke:none" inkscape:label="front-hands" />
   <path fill="#454545"
      d="m 615.42,764.65 c -7.37,-14.18 -14.47,-29.6 -18.64,-45 q -0.59,-2.21 -0.29,-4.52 0.07,-0.54 0.54,-0.83 1.9,-1.18 4.13,-1.51 1,-0.15 1.46,0.75 7.03,13.62 12.86,29.78 3.2,8.87 4.64,16.66 0.36,1.96 0.12,4.04 c -0.34,2.92 -3.74,2.72 -4.82,0.63 z"
      id="path293" style="display:inline;stroke:none" inkscape:label="front-hands" />
   <path fill="#454545"
      d="M 603.2,763.32 C 597.32,751.95 590.92,738.6 586.42,726.4 q -0.8,-2.15 1.08,-3.48 l 2.22,-1.57 q 1.83,-1.29 2.86,0.69 c 6.13,11.73 10.79,24.28 15.74,36.17 q 1.16,2.78 -0.76,5.72 -0.12,0.18 -0.3,0.32 -2.58,1.93 -4.06,-0.93 z"
      id="path301" style="display:inline;stroke:none" inkscape:label="front-hands" />
   <path fill="#454545"
      d="m 585.43,754.04 c -5.15,-8.61 -8.65,-19.26 -10.81,-28.78 q -0.46,-2.03 1.32,-0.96 1.2,0.73 2.2,1.88 c 6.71,7.78 8.51,18.11 10.03,28.15 a 0.6,0.59 -12.9 0 1 -0.42,0.66 q -1.5,0.43 -2.32,-0.95 z"
      id="path302" style="display:inline;stroke:none" inkscape:label="front-hands" />
   <path fill="#454545"
      d="m 76.9,699.46 c -1.68,6.93 -4.86,14.23 -9.75,19.73 -3.68,4.16 -10.21,-0.6 -12.84,-3.77 q -4.85,-5.86 -10.18,-10.8 c -2.03,-1.88 -9.58,-5.18 -8.37,-9.02 2,-6.4 4.37,-11.1 8.21,-16.74 q 5.74,-8.42 12.12,-17.03 2.99,-4.03 5.79,-6.44 1.65,-1.41 4.25,-0.76 7.51,1.87 13.62,4.2 a 0.47,0.47 0 0 1 0.29,0.4 q 1.61,20.71 -3.14,40.23 z"
      id="path279" style="display:inline;stroke:none" inkscape:label="front-hands" />
   <path fill="#454545"
      d="m 22.64,686.61 q -4.35,2.68 -8.97,5.43 -2,1.2 -3.76,0.73 -2.04,-0.55 -3.53,-1.72 a 1.59,1.59 0 0 1 -0.52,-1.77 q 0.73,-2.04 2.74,-3 5.14,-2.46 10.34,-5.1 a 13.93,13.75 -80.7 0 0 3.47,-2.53 c 3.04,-3.03 6.28,-5.7 9.81,-8.15 q 6.86,-4.77 13.58,-9.74 c 1.68,-1.24 2.71,-1.36 4.54,-0.38 4.66,2.47 -4.59,11.2 -6.57,12.67 -6.61,4.92 -13.95,9.14 -21.13,13.56 z"
      id="path282" style="display:inline;stroke:none" inkscape:label="front-hands" />
   <path fill="#454545"
      d="m 32.82,715.26 q -5.43,14.93 -12.06,27.84 -1.98,3.85 -4.71,6.75 a 1.67,1.66 51.8 0 1 -2.66,-0.32 c -2.02,-3.56 1,-13.05 2.6,-16.84 q 6.53,-15.37 13.87,-30.34 1.12,-2.28 2.93,-0.51 l 2.38,2.35 q 1.73,1.69 0.66,3.87 -1.5,3.03 -3.01,7.2 z"
      id="path288" style="display:inline;stroke:none" inkscape:label="front-hands" />
   <path fill="#454545"
      d="m 32.18,751.27 q -3.61,7.78 -7.04,13.77 -0.8,1.41 -2.48,1.29 a 2.04,2.04 0 0 1 -1.82,-1.48 q -0.59,-2.11 -0.16,-4.36 1.46,-7.75 4.24,-15.75 5.55,-15.95 13.53,-31.52 a 0.92,0.91 -74.1 0 1 0.89,-0.5 c 2.55,0.22 5.63,1.06 5.19,4.36 q -0.48,3.64 -1.61,7.19 -3.97,12.44 -10.74,27 z"
      id="path292" style="display:inline;stroke:none" inkscape:label="front-hands" />
   <path fill="#454545"
      d="m 54.56,726.38 c -4.87,12.51 -10.55,24.74 -16.83,36.91 q -1.47,2.85 -4.02,0.9 -0.2,-0.16 -0.33,-0.36 -1.89,-2.86 -0.7,-5.81 c 4.9,-12.05 9.63,-24.27 15.68,-36.05 q 0.94,-1.84 2.66,-0.68 l 2.47,1.68 q 1.89,1.28 1.07,3.41 z"
      id="path298" style="display:inline;stroke:none" inkscape:label="front-hands" />
   <path fill="#454545"
      d="m 53.04,752.14 c 1.93,-10.58 3.66,-20.18 11.74,-27.88 a 0.88,0.88 0 0 1 1.43,0.33 q 0.18,0.48 0.07,0.95 -3.65,14.78 -9.97,27.42 -0.75,1.49 -1.97,2.17 a 1.06,1.06 0 0 1 -1.57,-1.02 q 0.09,-0.98 0.27,-1.97 z"
      id="path303" style="display:inline;stroke:none" inkscape:label="front-hands" />
   <path fill="#454545"
      d="m 300.1,836.83 q 1.64,19.12 2.22,36.73 0.11,3.47 -0.89,0.14 -2.42,-8.03 -4.58,-16.34 c -4.22,-16.26 -9.63,-31.97 -14.75,-48.34 q -2.58,-8.25 -6.48,-18.58 -14.03,-37.14 -28.05,-75.59 -3.75,-10.3 -6.6,-19.52 -5.15,-16.64 -9.78,-32.48 c -4.96,-16.95 -8.01,-35.46 -8.1,-52.91 q -0.02,-2.71 0.71,-0.1 9.47,34.09 24.55,65.57 c 6.56,13.69 13.54,27.25 19.02,40.89 q 15.49,38.57 24.83,67.42 2.41,7.47 3.31,17.16 c 1.12,12.19 3.56,24.02 4.59,35.95 z"
      id="path268" style="display:inline;stroke:none" inkscape:label="front-adductors" />
   <path fill="#454545"
      d="m 338.67,872.66 c 0.73,-20.39 1.92,-38.3 4.91,-57.16 1.83,-11.53 2.14,-23.33 6.03,-34.79 q 10.93,-32.22 23.86,-64.19 c 5.7,-14.09 12.7,-27.77 19.13,-41.2 q 15.32,-32.04 24.53,-65.61 0.65,-2.39 0.64,0.08 c -0.12,28.68 -7.98,55.21 -17.34,83.63 -1.78,5.41 -3.2,10.88 -5.19,16.32 -10.25,27.99 -20.2,55.76 -30.81,83.12 q -2.8,7.2 -4.91,13.95 -5.59,17.81 -11.19,35.6 c -3.34,10.63 -5.96,21.88 -9.13,32.74 q -0.27,0.92 -0.4,-0.03 -0.18,-1.22 -0.13,-2.46 z"
      id="path269" style="display:inline;stroke:none" inkscape:label="front-adductors" />
   <path fill="#454545"
      d="m 292.87,682.52 c -3.12,14.57 -9.61,27.39 -18.76,39.63 q -0.68,0.91 -1.28,-0.05 c -2.93,-4.74 -4.21,-9.67 -4.63,-15.36 q -0.45,-5.9 -1.09,-8.14 -1.89,-6.56 -4.75,-13.01 c -2.76,-6.23 -4.28,-13.06 -7.14,-19.37 -7.35,-16.19 -16.26,-33.86 -22.42,-51.48 q -0.08,-0.21 -0.01,-0.42 a 0.26,0.26 0 0 1 0.46,-0.06 q 10.77,14.73 21.98,28.77 11.5,14.4 17.6,19.88 7.55,6.77 14.86,13.4 2.74,2.48 4.97,5.3 a 1.11,1.09 32.6 0 1 0.21,0.91 z"
      id="path270" style="display:inline;stroke:none" inkscape:label="front-adductors" />
   <path fill="#454545"
      d="m 394.37,647.3 c -4.46,9.4 -9.38,19.33 -12.44,29.17 q -1.3,4.17 -2.83,7.95 c -2.26,5.61 -4.97,10.94 -5.74,16.89 -0.99,7.53 -1.06,14.75 -5.53,21.2 a 0.5,0.5 0 0 1 -0.83,0.01 q -4.34,-6.22 -7.72,-11.72 -7.96,-12.97 -11.16,-28.21 a 1.61,1.61 0 0 1 0.35,-1.37 q 2.44,-2.82 5.14,-5.21 c 9.88,-8.72 18.7,-16.83 27.48,-27.39 q 13.43,-16.14 25.97,-33.56 0.32,-0.44 0.43,-0.49 0.87,-0.39 0.54,0.51 -5.81,15.68 -13.66,32.22 z"
      id="path271" style="display:inline;stroke:none" inkscape:label="front-adductors" />
   <path fill="#454545"
      d="m 286.21,731.89 c 5.1,-12.47 11.15,-24.68 16.82,-36.79 a 1.17,1.17 0 0 1 1.84,-0.38 q 0.8,0.71 0.75,1.93 c -0.46,12.38 -1.19,24.44 -2.76,37.71 -1.13,9.56 -1.91,19.14 -3.49,28.56 -0.69,4.17 -2.41,8.04 -4.32,11.69 a 2.22,2.21 29.3 0 1 -3.12,0.87 q -1.32,-0.8 -1.28,-2.41 0.2,-8.82 0.13,-17.67 -0.01,-1.4 -0.62,-2.66 c -2.16,-4.44 -4.98,-9.87 -5.17,-14.91 q -0.11,-2.7 1.22,-5.94 z"
      id="path284" style="display:inline;stroke:none" inkscape:label="front-adductors" />
   <path fill="#454545"
      d="m 352.83,748.3 c -2.02,3.67 -2.95,6.58 -2.78,11.03 q 0.26,6.53 0.21,13.72 c -0.01,1.58 -1.13,2.86 -2.75,2.9 q -0.58,0.01 -0.9,-0.48 C 342.49,769 341.27,763.08 340.41,755 q -1.04,-9.79 -2.26,-19.97 c -1.6,-13.31 -2.43,-25.65 -2.79,-38.57 q -0.03,-1.03 0.53,-1.68 a 1.21,1.2 52.6 0 1 2.01,0.27 q 6.87,14.67 13.39,28.8 2.2,4.77 3.93,9.5 1.07,2.92 0.68,5.46 -0.83,5.42 -3.07,9.49 z"
      id="path285" style="display:inline;stroke:none" inkscape:label="front-adductors" />
   <path fill="#454545"
      d="m 250.69,888.3 q -16.76,-40.15 -28.04,-78.67 -9.66,-32.96 -14.75,-66.84 c -6.22,-41.38 -6.25,-81.5 4.58,-120.54 q 0.12,-0.43 0.43,-0.11 0.42,0.42 0.59,0.99 22.71,76.86 50.06,155.88 0.82,2.37 1.12,4.78 4.02,31.91 4.89,65.81 c 0.88,34.39 -0.14,66.83 -3.55,99.57 -0.42,4.08 -1.48,7.64 -3.4,11.1 a 1.74,1.74 0 0 1 -1.36,0.9 c -3.47,0.33 -9.58,0.21 -9.46,-4.63 q 0.8,-32.72 -0.01,-63.12 -0.07,-2.67 -1.1,-5.12 z"
      id="path272" style="display:inline;stroke:none" inkscape:label="front-quadriceps" />
   <path fill="#454545"
      d="m 390.96,886.41 q -1.98,4.65 -2.04,9.09 -0.45,33.06 0.22,61.74 c 0.09,3.94 -6.78,4.21 -9.43,3.95 a 1.8,1.79 -10.8 0 1 -1.44,-0.97 c -1.51,-2.91 -2.67,-5.71 -3.07,-9.04 q -1.93,-16.27 -2.84,-32.46 c -2.55,-44.99 -1.64,-90.5 3.77,-134.26 q 0.37,-2.95 1.26,-5.54 26.45,-76.29 50.24,-156.54 a 0.39,0.38 21.6 0 1 0.55,-0.23 q 0.31,0.16 0.41,0.51 c 10.18,37.82 10.57,76.54 5.14,115.55 q -4.46,32.04 -13.33,63.85 -12.28,44.03 -29.44,84.35 z"
      id="path273" style="display:inline;stroke:none" inkscape:label="front-quadriceps" />
   <path fill="#454545"
      d="m 237.75,955.7 c -18.56,-47.89 -33.57,-96.23 -39.84,-146.62 -3.58,-28.72 -3.69,-58.65 1.76,-86.95 q 0.62,-3.18 0.81,0.06 0.5,8.53 1.83,17.04 3.42,21.88 10.35,47.5 6.6,24.41 13.5,49.26 2.72,9.81 5.92,19.09 4.05,11.74 7.55,25.02 1.76,6.7 2.16,12.33 2,28.5 1.14,55.08 c -0.12,3.52 -0.98,6.35 -3.98,8.55 a 0.79,0.79 0 0 1 -1.2,-0.36 z"
      id="path299" style="display:inline;stroke:none" inkscape:label="front-quadriceps" />
   <path fill="#454545"
      d="m 441.32,723.15 q 5.4,27.88 3.91,59.43 c -1.5,31.66 -7.16,62.78 -15.56,93.66 q -10.93,40.18 -26.56,79.46 a 0.8,0.8 0 0 1 -1.23,0.34 c -4.09,-3.18 -3.84,-7.55 -3.96,-12.09 q -0.59,-24.2 1.07,-50.23 0.42,-6.4 2.05,-12.77 3.38,-13.22 8.06,-26.98 3.21,-9.44 5.93,-19.09 c 7.96,-28.15 15.34,-53.97 20.99,-81.11 q 3.3,-15.87 4.53,-32.62 0.01,-0.1 0.11,-0.14 l 0.25,-0.09 q 0.11,-0.04 0.12,0.07 0.06,0.98 0.29,2.16 z"
      id="path300" style="display:inline;stroke:none" inkscape:label="front-quadriceps" />
   <path fill="#454545"
      d="m 301.11,919.16 c -0.02,16.26 -1.13,34.39 -10.87,47.81 -1.99,2.73 -6.98,1.8 -10.02,1.14 -1.09,-0.24 -1.35,-1.1 -1.62,-2.04 -3.49,-11.83 -3.03,-24.65 -1.79,-37.03 q 1.41,-14.09 3.35,-26.37 1.6,-10.13 1.54,-18.61 -0.09,-12.6 -1.48,-24.36 c -1.65,-13.85 -3.88,-27.85 -2.4,-41.77 a 0.32,0.32 0 0 1 0.4,-0.28 q 0.4,0.1 0.57,0.48 c 14.17,32.12 22.37,65.88 22.32,101.03 z"
      id="path314" style="display:inline;stroke:none" inkscape:label="front-quadriceps" />
   <path fill="#454545"
      d="m 350.02,966.12 c -9.24,-14.15 -10.21,-31.4 -10.24,-48.19 -0.07,-33.99 8.51,-69.02 22.57,-100.06 a 0.51,0.49 -76.6 0 1 0.45,-0.29 q 0.28,0 0.31,0.28 c 0.83,7.48 0.62,15.88 -0.25,23.21 -1.72,14.59 -3.74,28.99 -3.61,44.11 q 0.06,8 1.44,16.9 1.82,11.87 3.26,24.93 c 1.49,13.54 2.18,28.24 -1.97,40.04 a 1.57,1.55 2.7 0 1 -1.11,1 q -3.84,0.9 -7.13,0.61 -2.19,-0.19 -3.72,-2.54 z"
      id="path315" style="display:inline;stroke:none" inkscape:label="front-quadriceps" />
   <path fill="#454545"
      d="m 367.17,978.19 c 7.47,-2.33 16.25,-0.86 22.63,4.13 q 0.45,0.35 0.38,0.92 -1.87,15.08 -7.33,28.55 -2.94,7.24 -7.89,12.74 a 0.87,0.87 0 0 1 -1.34,-0.05 c -8.34,-10.84 -10.82,-27.73 -10.91,-41.25 -0.01,-2.65 2.18,-4.32 4.46,-5.04 z"
      id="path318" style="display:inline;stroke:none" inkscape:label="front-knees" />
   <path fill="#454545"
      d="m 258.39,1012.52 q -5.64,-13.48 -7.66,-29.52 -0.05,-0.4 0.28,-0.64 10.7,-7.7 22.82,-4.11 c 5.29,1.57 4.59,5.57 4.3,9.79 -0.9,12.75 -3.27,25.99 -10.59,36.26 a 1.05,1.05 0 0 1 -1.64,0.09 q -4.73,-5.21 -7.51,-11.87 z"
      id="path319" style="display:inline;stroke:none" inkscape:label="front-knees" />
   <path fill="#454545"
      d="m 288.4,985.22 q 1.73,22.58 1.26,41.7 -0.04,1.47 -0.76,3.07 -4.6,10.16 -10.25,24.15 c -2.27,5.6 -3.1,11.54 -5.89,17 q -0.2,0.39 -0.5,0.07 -0.38,-0.42 -0.45,-1 c -1.47,-12.75 1.68,-26.74 4.89,-38.94 4.36,-16.65 9.53,-33.85 10.59,-51.47 q 0.01,-0.22 0.19,-0.33 0.05,-0.02 0.1,-0.02 0.14,0.02 0.16,0.16 0.44,2.76 0.66,5.61 z"
      id="path320" style="display:inline;stroke:none" inkscape:label="front-knees" />
   <path fill="#454545"
      d="m 369.06,1070.47 q -0.22,1.65 -1.01,0.18 c -2.79,-5.17 -3.42,-10.89 -5.57,-16.11 q -5.2,-12.65 -10.53,-24.91 c -0.38,-0.88 -0.8,-1.93 -0.81,-2.92 q -0.26,-23.13 1.85,-46.89 a 0.27,0.26 -77 0 1 0.36,-0.23 l 0.25,0.11 q 0.13,0.05 0.14,0.19 0.36,9.87 2.31,18.26 4.17,17.95 9.24,37.46 c 3.02,11.63 5.3,23.46 3.77,34.86 z"
      id="path321" style="display:inline;stroke:none" inkscape:label="front-knees" />
   <path fill="#454545"
      d="m 258.71,1030.63 c 3.61,6.97 7.98,15.68 6.95,23.65 a 0.48,0.48 0 0 1 -0.72,0.35 l -18.34,-11.02 q -0.38,-0.23 -0.55,-0.64 -1,-2.44 -1.32,-4.76 -3.61,-26.35 -4.29,-51.87 -0.06,-2.2 0.39,-0.04 c 3.24,15.52 10.35,29.77 17.88,44.33 z"
      id="path322" style="display:inline;stroke:none" inkscape:label="front-knees" />
   <path fill="#454545"
      d="m 378.49,1038.47 q 5.25,-11 11.25,-23 6.8,-13.59 10.56,-29.93 0.03,-0.15 0.18,-0.19 0.05,-0.01 0.1,0 0.1,0.01 0.09,0.11 -0.84,19 -2.62,37.31 -1.13,11.63 -2.64,19.1 -0.25,1.26 -1.49,1.99 -10.01,5.93 -17.84,10.76 a 0.53,0.53 0 0 1 -0.8,-0.37 c -0.79,-5.16 1.07,-11.29 3.21,-15.78 z"
      id="path323" style="display:inline;stroke:none" inkscape:label="front-knees" />
   <path fill="#454545"
      d="m 260.21,1135.29 c 4.48,29.68 7.59,58.82 9.36,87.72 0.53,8.66 1.47,17.39 2.79,25.97 q 1.84,11.96 7.34,33.23 0.5,1.94 1.04,7.01 0.48,4.54 -2.34,7.74 a 0.6,0.6 0 0 1 -0.99,-0.15 q -1.61,-3.47 -2.33,-7.07 -5.47,-27.17 -8.25,-45.03 -4.18,-26.84 -7.6,-47.71 -0.97,-5.95 -2.27,-12 -7.08,-33.02 -14.69,-65.86 -1.12,-4.84 -2.44,-9.69 -1.98,-7.22 -2.28,-9.76 -2.41,-20.6 1.44,-43.08 0.25,-1.46 0.73,-0.06 7.12,20.57 13.32,44.54 4.83,18.73 7.17,34.2 z"
      id="path330" style="display:inline;stroke:none" inkscape:label="front-tibialis" />
   <path fill="#454545"
      d="m 367.02,1257.45 q 3.27,-15.94 4.47,-35.75 2.4,-39.61 7.94,-77.98 2.44,-16.87 5.47,-30.17 6.3,-27.69 16.13,-56.67 0.69,-2.03 1.04,0.08 2.43,14.55 2.2,31.01 -0.15,10.91 -2.78,20.08 -1.29,4.53 -2.34,9.1 -7.34,31.94 -13.88,61.81 -2.12,9.66 -3.56,18.43 c -4.93,29.99 -9.41,60.77 -15.76,91.85 q -0.74,3.61 -2.23,7.21 a 0.86,0.86 0 0 1 -1.48,0.19 q -2.35,-3.11 -2.05,-7.14 0.36,-4.83 1.56,-9.43 3.01,-11.58 5.27,-22.62 z"
      id="path331" style="display:inline;stroke:none" inkscape:label="front-tibialis" />
   <path fill="#454545"
      d="m 273.89,1099.95 c 3.37,-15.16 7.39,-30.47 12.61,-44.88 q 0.67,-1.85 1.28,0.01 4.41,13.38 7.29,29.13 3.29,18.03 6.8,44.66 2.68,20.36 2.76,35.74 0.04,6.36 -1.26,13.77 -3.67,20.9 -7.39,37.94 -6.52,29.95 -12.99,57.95 -0.31,1.31 -0.67,0.01 -3.32,-11.98 -5.27,-24.29 -5.82,-36.85 -4.93,-74.51 c 0.46,-19.33 0.09,-35.61 0.04,-57.98 q -0.03,-9.65 1.73,-17.55 z"
      id="path328" style="display:inline;stroke:none" inkscape:label="front-calves" />
   <path fill="#454545"
      d="m 351.12,1061.47 q 0.86,-3.24 2.27,-6.95 a 0.37,0.37 0 0 1 0.67,-0.04 q 0.6,1.15 1.07,2.55 4.5,13.38 8.77,29.36 3.17,11.88 4.35,21.44 0.65,5.26 0.58,16.16 c -0.12,17.19 -0.49,33.53 -0.01,50.26 q 0.96,33.46 -3.97,69.04 -2.3,16.62 -6.18,31.23 -0.05,0.18 -0.19,0.29 a 0.25,0.25 0 0 1 -0.39,-0.14 c -7.63,-32.4 -14.66,-63.57 -20.38,-95.86 q -1.46,-8.28 -1.39,-15.2 0.13,-12.7 1.63,-25.36 c 2.86,-24.12 6.38,-51.37 13.17,-76.78 z"
      id="path329" style="display:inline;stroke:none" inkscape:label="front-calves" />
   <path fill="#454545"
      d="m 272.32,1289.43 q 0.14,1.3 -0.7,0.3 -1.96,-2.32 -3.31,-4.94 -4.85,-9.47 -8.79,-20.24 -9.58,-26.21 -15.83,-53.09 -1,-4.3 -2.77,-8.19 c -8,-17.6 -12.77,-36.6 -13.83,-55.89 q -1.45,-26.23 4.89,-54.26 0.41,-1.85 1,-0.05 1.2,3.7 2.35,7.92 c 6.05,22.14 11.41,47.6 16.75,71.19 q 2.42,10.71 3.46,19.48 2.54,21.38 5.09,39.58 c 2.14,15.29 4.57,31.52 9.27,46.7 q 1.76,5.67 2.42,11.49 z"
      id="path332" style="display:inline;stroke:none" inkscape:label="front-calves" />
   <path fill="#454545"
      d="m 400.56,1202.06 c -1.03,2.29 -2.11,4.68 -2.7,7.11 -5.58,23.36 -12.43,46.15 -21.19,67.15 q -3.13,7.49 -7.08,13.12 -0.19,0.27 -0.47,0.44 -0.68,0.4 -0.57,-0.38 0.79,-5.61 2.43,-11.29 5.47,-18.91 8.27,-39.41 3.36,-24.7 6.32,-48.64 1.04,-8.33 3.58,-19.59 5.82,-25.8 11.4,-49.84 3.49,-14.99 7.21,-27.24 0.18,-0.58 0.63,-1.01 0.33,-0.31 0.43,0.13 c 8.56,36.96 7.32,74.95 -8.26,109.45 z"
      id="path333" style="display:inline;stroke:none" inkscape:label="front-calves" />
   <path fill="#454545"
      d="m 279.42,1326.07 q -2.66,-6.02 -11.2,-17.08 -1.56,-2.02 -1.72,-4 c -0.22,-2.73 1.78,-5.75 4.12,-7.13 q 0.49,-0.29 0.97,0.02 8.39,5.34 14.89,11.86 1.95,1.97 2.11,4.51 0.86,13.41 -1.46,27.53 a 0.31,0.31 0 0 1 -0.45,0.22 q -0.14,-0.08 -0.27,-0.19 -0.12,-0.1 -0.18,-0.24 -3.39,-7.76 -6.81,-15.5 z"
      id="path338" style="display:inline;stroke:none" inkscape:label="front-ankles" />
   <path fill="#454545"
      d="m 353.36,1339.65 q -1.77,-13.46 -1.06,-24.75 0.06,-0.96 0.22,-1.92 c 0.7,-4.2 12.74,-12.42 16.33,-14.86 q 1.07,-0.72 2.08,0.08 c 3.24,2.56 4.92,6.49 2.19,10.15 -5.11,6.84 -9.99,13.59 -13.3,21.5 q -2.27,5.41 -5.06,11.31 -0.76,1.62 -1.15,-0.12 -0.15,-0.68 -0.25,-1.39 z"
      id="path339" style="display:inline;stroke:none" inkscape:label="front-ankles" />
   <path fill="#454545"
      d="m 284.58,1349.02 q 5.05,11.98 7,21.38 3.39,16.32 -0.69,32.76 a 0.43,0.43 0 0 1 -0.76,0.16 c -10.12,-13.11 -21.17,-25.72 -34.11,-35.39 a 1.63,1.62 16.1 0 1 -0.65,-1.17 q -0.75,-8.89 2.46,-14.38 0.98,-1.67 1.18,-3.55 1.38,-12.95 2.87,-26.6 a 0.7,0.7 0 0 1 0.91,-0.59 c 11.21,3.6 17.28,16.67 21.79,27.38 z"
      id="path340" style="display:inline;stroke:none" inkscape:label="front-ankles" />
   <path fill="#454545"
      d="m 379.01,1322.5 c 1.17,9.01 1.97,18.19 3.1,26.72 0.13,0.98 0.26,1.92 0.78,2.79 q 3.21,5.33 2.84,13.44 -0.1,2.05 -1.78,3.29 c -12.07,8.93 -22.71,21.31 -32.45,33.67 q -0.48,0.61 -1.15,0.95 a 0.24,0.24 0 0 1 -0.34,-0.16 q -5.23,-21.38 1.99,-42.64 2.82,-8.31 6.7,-16.77 c 4.2,-9.17 9.45,-18.49 19,-22.07 a 0.98,0.97 -14.1 0 1 1.31,0.78 z"
      id="path341" style="display:inline;stroke:none" inkscape:label="front-ankles" />
   <path fill="#454545"
      d="m 268.26,1427.94 c -13.55,0.97 -28,-0.1 -40.94,-5.21 a 0.76,0.76 0 0 1 -0.35,-1.14 c 8.83,-12.76 18.97,-25.24 27.65,-37.39 q 0.72,-1 1.89,-0.61 11.12,3.76 18.81,14.19 c 1.66,2.25 0.2,9.63 -0.4,12.23 q -2.17,9.25 -5.67,17.23 a 1.19,1.17 -79.8 0 1 -0.99,0.7 z"
      id="path344" style="display:inline;stroke:none" inkscape:label="front-feet" />
   <path fill="#454545"
      d="m 382.04,1384.42 q 1.51,-0.66 3.03,-0.87 0.57,-0.07 0.91,0.39 l 27.73,37.1 a 1.23,1.22 61 0 1 -0.53,1.87 c -12.37,4.87 -27.24,6.04 -40.29,5.05 a 1.5,1.49 81 0 1 -1.27,-0.93 c -3.14,-7.8 -6.11,-16.5 -6.82,-25.44 q -0.2,-2.47 0.96,-4.02 6.68,-8.97 16.28,-13.15 z"
      id="path345" inkscape:label="front-feet" style="display:inline;stroke:none" />
   <path fill="#454545"
      d="m 279.15,1427.43 c -2.43,-4.43 -2.1,-22.42 2.82,-25.6 q 0.48,-0.31 0.93,0.02 c 4.5,3.21 11.09,10.03 10.33,15.88 q -0.43,3.39 -0.54,7.02 a 3.3,3.3 0 0 1 -3.32,3.21 l -9.41,-0.05 q -0.55,0 -0.81,-0.48 z"
      id="path346" inkscape:label="front-feet" style="display:inline;stroke:none" />
   <path fill="#454545"
      d="m 347.64,1416.45 c -0.34,-4.76 6.41,-11.73 10.12,-14.46 a 1.41,1.4 -37.2 0 1 1.94,0.26 c 2.44,3.09 2.86,7.16 3.19,10.93 q 0.6,6.77 -0.53,13.21 a 1.96,1.95 5.2 0 1 -1.95,1.62 l -9.39,-0.1 a 2.74,2.74 0 0 1 -2.7,-2.53 q -0.35,-4.33 -0.68,-8.93 z"
      id="path347" inkscape:label="front-feet" style="display:inline;stroke:none" />
   <path fill="#595959"
      d="m 1096.04,0 h 7.79 c 22.49,2.45 53.18,10.99 60.21,36.27 q 0.46,1.66 2,2.05 c 64.38,16.44 60.01,99.49 44.24,147.61 q -2.62,7.99 -6.55,14.81 -0.51,0.89 -1.22,1.68 -0.97,1.07 -1.52,1.32 -3.63,1.58 -6.55,2.8 -14.77,6.1 -29.14,11 -0.74,0.26 -0.59,1.19 -0.52,-0.76 -1.47,-0.46 -4.4,1.42 -10.86,2.97 -3.97,1 -6.62,1.12 -5.28,0.24 -12.66,-0.36 -5.76,-0.52 -11.15,-2.21 -0.54,-0.17 -0.85,-0.03 -0.45,0.2 -0.58,0.77 0.26,-1.02 -0.52,-1.24 -9.76,-2.78 -19.21,-7.04 a 0.46,0.46 0 0 0 -0.65,0.43 l 0.39,12.23 q 0.49,15.83 -0.42,30.63 l -0.91,9.16 a 2.42,2.42 0 0 1 -1.99,2.15 q -11.5,2.06 -22.86,2.63 -5.84,0.05 -10.69,-1.12 -4.96,-1.19 -7,-1.31 -3.7,-0.23 -7.48,-0.12 -17.27,0.5 -33.97,1.33 -7.72,0.38 -15.15,-0.74 a 2.13,2.12 0.2 0 1 -1.78,-1.78 c -1,-6.77 1.75,-15.8 4.22,-22.15 q 5.88,-15.15 12.89,-32.55 c 7.85,-19.49 14.27,-41.02 13.35,-61.3 q -1.03,-22.68 -5.37,-57.36 -0.67,-5.33 -0.4,-10.31 0.98,-18.63 7.84,-37.04 5.87,-15.78 15.35,-24.54 c 7.92,-7.32 19.98,-14.55 31.09,-17.67 q 9.1,-2.55 18.79,-2.82 z m 40.66,79.56 c 15.08,3.29 29.45,-7.8 30.48,-23.26 q 0.15,-2.22 -0.63,-0.14 -6.61,17.62 -24.72,17.97 c -5.78,0.12 -11.81,-2.36 -16.39,-6.42 -1.53,-1.35 -3.74,-3.16 -5.84,-2.98 a 0.62,0.62 0 0 0 -0.5,0.9 q 5.86,11.37 17.6,13.93 z"
      id="path183" style="display:inline" inkscape:label="back-hair" />
   <path fill="#bfbfbf"
      d="m 1167.18,56.3 c -1.03,15.46 -15.4,26.55 -30.48,23.26 Q 1124.96,77 1119.1,65.63 a 0.62,0.62 0 0 1 0.5,-0.9 c 2.1,-0.18 4.31,1.63 5.84,2.98 4.58,4.06 10.61,6.54 16.39,6.42 q 18.11,-0.35 24.72,-17.97 0.78,-2.08 0.63,0.14 z"
      id="path186" style="display:inline" inkscape:label="back-hair" />
   <path fill="#454545"
      d="m 1164.71,218.73 c 1.42,12.25 1.86,24.62 7.81,35.59 3.46,6.38 11.4,11.41 17.38,13.62 q 4.31,1.6 8.68,2.96 1.85,0.58 2.75,2.35 a 0.65,0.65 0 0 1 -0.56,0.94 q -23.87,0.79 -45.98,10.03 a 0.34,0.34 0 0 1 -0.47,-0.3 l -1.94,-62.68 q 6.46,-1.55 10.86,-2.97 0.95,-0.3 1.47,0.46 z"
      id="path189" style="display:inline" inkscape:label="back-neck" />
   <path fill="#454545"
      d="m 1133.1,222 -1.89,61.8 q -0.02,0.66 -0.62,0.4 -22.28,-9.35 -45.91,-9.91 a 0.77,0.77 0 0 1 -0.6,-1.22 q 1.38,-1.89 3.31,-2.48 c 6.78,-2.07 12.31,-3.9 18.36,-8.33 q 5.08,-3.71 7.66,-8.78 c 5.15,-10.11 6.3,-21.91 7.11,-32.95 q 0.13,-0.57 0.58,-0.77 0.31,-0.14 0.85,0.03 5.39,1.69 11.15,2.21 z"
      id="path190" style="display:inline" inkscape:label="back-neck" />
   <path fill="#454545"
      d="m 1135.46,406.92 c -18.92,-8.6 -32.13,-23.67 -41.02,-42.55 q -5.92,-12.58 -12.01,-29.57 c -8.17,-22.8 -18.79,-46.58 -45.58,-51.11 q -2.73,-0.46 -0.13,-1.41 4.88,-1.81 11.29,-2.14 31.93,-1.68 62.2,8.18 c 8.7,2.84 17.39,6.76 24.41,12.87 q 2.26,1.96 2.37,4.56 c 1.34,31.32 1.02,63.51 1.17,95.68 q 0.01,2.48 -0.9,4.77 -0.52,1.31 -1.8,0.72 z"
      id="path198" style="display:inline" inkscape:label="back-trapezius" />
   <path fill="#454545"
      d="m 1207.43,323.66 c -6.47,16.09 -12.05,33.31 -20.26,48.12 q -13.47,24.27 -37.07,35.13 a 1.54,1.53 -20.3 0 1 -2.12,-0.97 q -0.48,-1.66 -0.5,-3.37 -0.3,-43.8 0.71,-95.35 c 0.05,-2.69 0.7,-4.25 2.8,-6.09 q 6.04,-5.32 13.64,-8.64 c 21.78,-9.51 47.77,-13.62 71.23,-12.54 4.41,0.2 9.17,0.92 13.49,2.46 q 1.76,0.62 -0.05,1.06 c -2.97,0.73 -5.89,1.25 -8.8,2.31 -17.14,6.22 -26.43,21.36 -33.07,37.88 z"
      id="path199" style="display:inline" inkscape:label="back-trapezius" />
   <path fill="#454545"
      d="m 1269.98,290.8 c 13.79,8.38 20.48,19.55 22.26,34.89 1.11,9.5 1.29,18.77 0.46,28.54 q -0.73,8.56 -1.29,17.08 -0.08,1.29 -0.8,0.22 c -16.86,-25.21 -37.38,-47.58 -59.38,-68.88 q -0.46,-0.45 0,-0.88 c 9.46,-8.91 18.65,-15.05 32.34,-13.43 2.34,0.28 4.42,1.25 6.41,2.46 z"
      id="path202" style="display:inline" inkscape:label="back-deltoids" />
   <path fill="#454545"
      d="m 1015.26,291.32 c 13.82,-8.28 31.54,1.05 42.43,10.31 a 0.79,0.78 46.2 0 1 -0.02,1.22 c -24.49,19.25 -48.03,41.91 -64.52,68.41 q -0.81,1.29 -0.91,-0.22 c -0.55,-8.02 -1.66,-16.16 -1.47,-24.04 q 0.34,-14.94 4.17,-28.72 4.91,-17.72 20.32,-26.96 z"
      id="path203" style="display:inline" inkscape:label="back-deltoids" />
   <path fill="#454545"
      d="m 1076.09,338.19 q 6.08,14 8.04,30.55 0.06,0.58 -0.52,0.57 -11.77,-0.05 -23.32,-2.12 -15.59,-2.79 -31.04,-5.99 a 1.37,1.36 12.9 0 1 -1.05,-1.66 c 4.67,-18.66 16.53,-35.54 33.45,-45.02 a 0.84,0.83 59.5 0 1 1.11,0.29 c 4.8,7.66 9.75,15.13 13.33,23.38 z"
      id="path208" style="display:inline" inkscape:label="back-upper-back" />
   <path fill="#454545"
      d="m 1208.41,340.35 c 3.56,-8.92 9.08,-17.44 14.24,-25.41 a 0.92,0.91 29.5 0 1 1.18,-0.32 c 16.77,8.66 28.69,26.73 33.4,44.65 q 0.44,1.67 -1.25,2 c -18.03,3.6 -36.04,7.81 -54.02,8.1 q -0.68,0.01 -0.6,-0.67 1.86,-15.33 7.05,-28.35 z"
      id="path209" style="display:inline" inkscape:label="back-upper-back" />
   <path fill="#454545"
      d="m 1136.59,472.49 c -4.61,16.03 -15.02,30.53 -26.92,42.6 q -13.41,13.6 -29.37,25.62 -0.65,0.5 -0.73,-0.32 -5.92,-63.46 -22.92,-123.09 -4.96,-17.4 -9.99,-34.68 a 0.7,0.7 0 0 1 0.74,-0.89 q 8.92,0.83 16.32,1.52 10.81,1.01 19.97,-4.41 0.54,-0.32 1,0.1 1.78,1.59 3.48,3.41 22.52,24.07 30.7,32.06 7.98,7.79 16.19,14.02 0.79,0.6 1.05,1.52 6.33,22.2 0.48,42.54 z"
      id="path214" style="display:inline" inkscape:label="back-upper-back" />
   <path fill="#454545"
      d="m 1238.86,382.59 c -6.36,21.96 -12.97,44.37 -18.07,65.96 q -10.8,45.75 -14.79,91.85 a 0.46,0.46 0 0 1 -0.74,0.33 Q 1184.28,525.02 1169.34,508 c -8.23,-9.38 -15.46,-20.54 -19.54,-32.61 q -6.78,-20.06 -1.17,-43.01 c 0.49,-1.99 0.83,-3.24 2.53,-4.57 17.75,-13.89 33.26,-32.01 49.33,-48.67 q 0.64,-0.67 1.43,-0.19 9.01,5.38 20.51,4.24 7.75,-0.76 15.78,-1.39 a 0.62,0.62 0 0 1 0.65,0.79 z"
      id="path215" style="display:inline" inkscape:label="back-upper-back" />
   <path fill="#454545"
      d="m 1199.62,562.36 c -10.91,16.62 -23.7,30.13 -37.46,44.84 q -3.74,4 -7.34,8.9 -0.68,0.93 -0.82,-0.22 c -1.8,-15.45 -2.6,-31.26 -2.53,-47.01 q 0.14,-30.97 0.58,-60.87 0.02,-1.16 0.8,-0.31 13.63,14.85 25.73,27.71 7.18,7.63 15.56,14.48 4.25,3.47 8.77,5.95 0.51,0.27 0.23,0.78 -1.61,2.85 -3.52,5.75 z"
      id="path248" style="display:inline" inkscape:label="back-lower-back" />
   <path fill="#454545"
      d="m 1133.23,596.5 c -0.34,6.54 -1.25,13 -1.82,19.57 q -0.07,0.85 -0.6,0.17 -3.62,-4.73 -6.59,-7.98 -9.72,-10.63 -18.63,-20.4 -12.89,-14.11 -23.33,-31.15 a 0.57,0.57 0 0 1 0.2,-0.78 q 7.87,-4.59 14.81,-11.15 c 12.33,-11.64 23.63,-24.56 35.33,-36.99 q 0.87,-0.93 0.88,0.34 c 0.19,29.32 1.27,58.9 -0.25,88.37 z"
      id="path249" style="display:inline" inkscape:label="back-lower-back" />
   <path fill="#454545"
      d="m 1205.91,583.12 c 0.67,-13.86 3,-27.66 11.11,-39.08 a 0.57,0.57 0 0 1 0.96,0.06 q 1.93,3.49 2.75,7.64 c 2.78,13.99 3.44,28.55 4.52,42.69 a 0.37,0.36 13.1 0 1 -0.55,0.34 l -18.27,-10.7 a 1.05,1.04 16.6 0 1 -0.52,-0.95 z"
      id="path258" style="display:inline" inkscape:label="back-lower-back" />
   <path fill="#454545"
      d="m 1068.62,544.21 c 7.96,11.18 10.18,25.23 10.98,38.79 a 1.16,1.16 0 0 1 -0.56,1.06 l -18.13,10.62 a 0.4,0.39 -13.5 0 1 -0.6,-0.36 q 1.04,-16.62 2.69,-32.09 0.79,-7.45 2.8,-14.26 0.6,-2.03 1.74,-3.74 a 0.66,0.65 -45.9 0 1 1.08,-0.02 z"
      id="path259" style="display:inline" inkscape:label="back-lower-back" />
   <path fill="#454545"
      d="m 1028.38,422.24 c 0.27,25.48 -7.52,49.09 -23.37,68.41 q -1.16,1.41 -0.93,-0.4 0.44,-3.53 0.41,-7.83 -0.06,-10.3 -1.3,-22.14 -2.2,-20.98 -3.39,-41.99 -0.61,-10.99 0.7,-23.78 c 1.65,-15.98 6.95,-30.6 19.9,-39.63 a 0.42,0.41 73.8 0 1 0.65,0.36 q -0.32,8.22 1.06,16.55 c 2.81,16.86 6.09,33.63 6.27,50.45 z"
      id="path212" style="display:inline" inkscape:label="back-triceps" />
   <path fill="#454545"
      d="m 1281,491.32 c -15.93,-19.27 -23.98,-42.53 -23.89,-67.9 q 0.04,-11.8 1.5,-21.9 2.13,-14.76 4.78,-30.03 1.39,-8.03 1.05,-16.2 a 0.44,0.44 0 0 1 0.7,-0.38 c 15.59,11.17 19.78,29.71 20.57,48.58 q 0.43,10.46 -0.35,21.17 -1.37,18.51 -3.48,40.31 -1.27,13.12 -0.53,26.21 0.03,0.6 -0.35,0.14 z"
      id="path213" style="display:inline" inkscape:label="back-triceps" />
   <path fill="#454545"
      d="m 976.72,479.34 q -0.46,-17.73 -0.59,-32.11 c -0.22,-24.28 5.62,-47.43 19.17,-67.7 q 0.38,-0.55 0.24,0.1 -9.84,49.08 -17.78,99.12 a 0.83,0.82 -4 0 1 -0.58,0.66 l -0.25,0.08 q -0.21,0.06 -0.21,-0.15 z"
      id="path216" style="display:inline" inkscape:label="back-triceps" />
   <path fill="#454545"
      d="m 1290.47,379.83 c 11.24,17.52 17.33,36.08 18.47,57.41 0.75,14.09 0.07,27.95 0.05,41.97 a 0.28,0.28 0 0 1 -0.41,0.24 l -0.26,-0.14 q -0.65,-0.34 -0.76,-1.06 -7.8,-49.99 -17.59,-98.21 -0.29,-1.43 0.5,-0.21 z"
      id="path217" style="display:inline" inkscape:label="back-triceps" />
   <path fill="#454545"
      d="m 990.45,481.03 c -2.39,-3.13 -3.03,-8.64 -3.15,-12.61 q -0.81,-26.18 5.96,-50.71 a 0.37,0.37 0 0 1 0.61,-0.17 q 0.16,0.15 0.19,0.37 c 2.18,16.06 4.1,31.34 3.14,46.56 -0.33,5.2 -1.01,12.19 -4.17,16.53 a 1.61,1.61 0 0 1 -2.58,0.03 z"
      id="path224" style="display:inline" inkscape:label="back-triceps" />
   <path fill="#454545"
      d="m 1291.39,418.15 q 0.03,-0.24 0.18,-0.46 0.48,-0.71 0.7,0.12 6.89,26.33 5.89,50.76 c -0.16,3.99 -0.69,8.84 -2.91,12.24 a 1.69,1.68 -51.8 0 1 -2.56,0.31 c -2.76,-2.6 -3.77,-9.43 -4.13,-13.42 -1.44,-16.19 0.36,-32.39 2.83,-49.55 z"
      id="path225" style="display:inline" inkscape:label="back-triceps" />
   <path fill="#454545"
      d="m 975.21,499.01 c 1.84,-4.34 5.3,-10.94 10.55,-11.69 3.15,-0.45 8.93,-1.45 11.43,0.58 q 3.23,2.63 1.33,6.34 -3.58,7.04 -8.39,12.41 -7.93,8.86 -17.96,19.2 a 0.33,0.32 -34.8 0 1 -0.53,-0.09 q -1.15,-2.76 -1.06,-6.04 0.31,-10.51 4.63,-20.71 z"
      id="path242" style="display:inline" inkscape:label="back-forearm" />
   <path fill="#454545"
      d="m 1287.36,495.1 q -0.66,-1.22 -1,-2.61 c -0.91,-3.66 3.19,-5.9 6.21,-5.78 q 4.25,0.16 7.87,0.8 c 8.25,1.44 13.07,19.85 14.04,26.73 q 0.78,5.48 -0.26,11.26 a 0.58,0.57 -61.9 0 1 -0.98,0.3 q -8.13,-8.44 -16.02,-16.95 -5.71,-6.16 -9.86,-13.75 z"
      id="path243" style="display:inline" inkscape:label="back-forearm" />
   <path fill="#454545"
      d="m 941.59,538.06 c -10.38,28.73 -19.89,57.37 -27.03,86.93 q -2.23,9.27 -3.43,18.85 -0.08,0.65 -0.71,0.78 -2.96,0.63 -5.97,-0.23 c -6.64,-1.91 -6.12,-8.24 -4.18,-13.33 q 16.12,-42.22 33.46,-84.93 5.37,-13.2 12.03,-26.13 2.79,-5.42 6.2,-10.06 1.45,-1.95 0.5,0.29 -5.71,13.57 -10.87,27.83 z"
      id="path250" style="display:inline" inkscape:label="back-forearm" />
   <path fill="#454545"
      d="m 1374.91,644.61 a 0.63,0.62 -88.1 0 1 -0.49,-0.53 q -1.21,-9.55 -3.48,-19.07 c -6.9,-28.95 -17.02,-59.28 -27.49,-88.05 q -4.81,-13.23 -10.53,-26.85 -0.87,-2.08 0.48,-0.27 2.91,3.89 5.26,8.23 6.11,11.31 10.9,22.92 19.34,46.92 36.37,92.34 1.24,3.29 0.04,6.8 c -1.45,4.24 -7.09,5.35 -11.06,4.48 z"
      id="path251" style="display:inline" inkscape:label="back-forearm" />
   <path fill="#454545"
      d="m 930.6,575.85 q 12.51,-34.52 28.14,-65.44 0.43,-0.86 0.47,0.1 c 0.49,12.97 -1.54,25.43 -3.91,38.74 -2.51,14.09 -8.58,26.84 -13.42,40.42 q -1.72,4.85 -6.72,12.65 -6.65,10.39 -13.96,19.24 -0.97,1.19 -0.94,-0.34 0.15,-6.74 1.54,-13.78 3.2,-16.15 8.8,-31.59 z"
      id="path252" style="display:inline" inkscape:label="back-forearm" />
   <path fill="#454545"
      d="m 1326.82,510.35 c 12.89,26.28 24.62,53.47 32.98,80.83 q 4.59,15.02 5.5,30.08 0.09,1.54 -0.91,0.36 -9.8,-11.56 -17.28,-24.72 -2.96,-5.2 -5.36,-12.12 -2.76,-7.98 -6.01,-15.96 c -4.29,-10.55 -5.9,-21.36 -7.75,-32.59 q -2.18,-13.15 -1.71,-25.77 0.04,-1.12 0.54,-0.11 z"
      id="path253" style="display:inline" inkscape:label="back-forearm" />
   <path fill="#454545"
      d="m 999.09,525.32 q -17.79,35.36 -41.48,67.79 c -7.52,10.28 -15.96,20.81 -26,28.74 a 0.38,0.38 0 0 1 -0.53,-0.06 q -0.12,-0.14 -0.06,-0.3 11.88,-29.53 23.3,-54.73 6.13,-13.51 13.08,-26.59 3.39,-6.37 7.64,-12.19 c 1.13,-1.54 2.35,-1.94 4.17,-1.93 q 4.02,0.02 8.07,0.22 c 3.63,0.18 9.88,-4.42 13.11,-6.8 0.2,-0.14 0.64,-0.23 0.88,-0.2 a 0.39,0.39 0 0 1 0.32,0.53 q -1.15,2.82 -2.5,5.52 z"
      id="path256" style="display:inline" inkscape:label="back-forearm" />
   <path fill="#454545"
      d="m 1354.08,620.73 q 0.96,2.42 -1,0.71 -9.65,-8.41 -17.52,-18.38 -24.99,-31.7 -45.4,-70.39 -3.25,-6.15 -6.17,-12.68 -0.09,-0.2 -0.03,-0.4 a 0.51,0.51 0 0 1 0.78,-0.29 c 4.23,2.88 9.9,7.54 15.41,6.95 q 3.07,-0.34 6.17,-0.24 c 1.9,0.05 3.28,0.57 4.42,2.2 7.5,10.74 13.36,23.21 18.79,35.06 q 12.91,28.18 24.55,57.46 z"
      id="path257" style="display:inline" inkscape:label="back-forearm" />
   <path fill="#454545"
      d="m 902.05,654.63 c 1.72,20.81 -0.74,43.2 -13.83,59.63 -1.5,1.87 -3.8,1.35 -5.78,0.55 q -7.06,-2.82 -10.22,-9.71 c -0.79,-1.73 -2.34,-3.24 -3.92,-4.25 q -5.99,-3.87 -10.35,-8.32 a 2.19,2.18 28.4 0 1 -0.59,-1.97 q 1.69,-8.62 7.46,-16.29 7.41,-9.85 18.48,-23.61 0.37,-0.46 0.96,-0.45 8.59,0.19 16.75,3.06 a 1.58,1.57 -82.5 0 1 1.04,1.36 z"
      id="path276" style="display:inline" inkscape:label="back-hands" />
   <path fill="#454545"
      d="m 1390.47,703.5 c -7.03,-15.23 -8.6,-32.38 -6.98,-49.44 a 0.84,0.84 0 0 1 0.55,-0.71 q 8.24,-2.9 16.94,-3.13 a 1.84,1.82 -19.6 0 1 1.51,0.71 q 7.66,9.84 15.58,19.76 7.56,9.46 9.92,18.85 c 0.44,1.72 -0.22,3.09 -1.51,4.23 q -4.73,4.18 -10.02,7.65 -2.13,1.39 -3.17,3.63 c -2.09,4.49 -5.23,7.65 -10.01,9.66 q -2.32,0.97 -4.45,0.69 -0.49,-0.06 -0.83,-0.42 -4.41,-4.73 -7.53,-11.48 z"
      id="path277" style="display:inline" inkscape:label="back-hands" />
   <path fill="#454545"
      d="m 1434.6,668.37 q 8.2,5.82 20.84,12.66 3.02,1.63 0.3,3.74 -0.49,0.38 -1.08,0.56 -3.68,1.1 -6.72,-0.17 -21.61,-9.06 -36.36,-26.82 -0.91,-1.09 0.16,-2.02 c 2.56,-2.23 4.17,-1.59 6.69,0.28 q 8.2,6.11 16.17,11.77 z"
      id="path280" style="display:inline" inkscape:label="back-hands" />
   <path fill="#454545"
      d="m 847.54,670.63 q 10.11,-7.1 20.43,-14.71 c 1.82,-1.34 3.93,-1.24 5.61,0.25 q 1.28,1.14 0.18,2.44 -14.63,17.34 -36.12,26.57 -2.85,1.23 -6.59,0.27 -0.66,-0.17 -1.22,-0.56 -2.78,-1.93 0.1,-3.71 c 5.74,-3.54 11.89,-6.53 17.61,-10.55 z"
      id="path281" style="display:inline" inkscape:label="back-hands" />
   <path fill="#454545"
      d="m 857.95,703.24 c -4.4,13.3 -9.63,25.8 -16.79,37.33 q -1.72,2.78 -4.23,4.64 a 1.09,1.09 0 0 1 -1.74,-0.77 c -1.48,-16.04 8.92,-33.06 16.88,-46.35 q 0.57,-0.95 1.66,-0.8 c 2.95,0.39 5.23,2.88 4.22,5.95 z"
      id="path286" style="display:inline" inkscape:label="back-hands" />
   <path fill="#454545"
      d="m 1440.18,733.51 c -5.02,-9.9 -10.12,-20.82 -13.01,-31.69 q -0.15,-0.58 0.1,-1.13 1.52,-3.24 4.84,-3.48 0.7,-0.05 1.06,0.55 c 8.34,13.8 18.29,30.28 17.05,46.84 a 0.97,0.97 0 0 1 -1.49,0.74 c -3.56,-2.27 -6.64,-8.06 -8.55,-11.83 z"
      id="path287" style="display:inline" inkscape:label="back-hands" />
   <path fill="#454545"
      d="m 848.29,759.36 c -5.06,1.08 -7.66,-1.55 -5.81,-6.56 6.01,-16.27 11.17,-30.37 18.43,-44.8 q 1.12,-2.22 3.5,-1.5 l 0.45,0.14 a 3.88,3.87 16.7 0 1 2.59,4.81 c -4.79,16.16 -11.42,31.25 -18.02,46.96 a 1.59,1.57 -84.6 0 1 -1.14,0.95 z"
      id="path290" style="display:inline" inkscape:label="back-hands" />
   <path fill="#454545"
      d="m 1431.61,747.81 q -8.05,-18.9 -13.4,-35.42 -0.77,-2.34 0.9,-4.93 0.26,-0.41 0.73,-0.64 3.35,-1.63 4.67,0.91 3.49,6.76 6.36,13.86 6.23,15.39 12.52,32.24 c 1.04,2.81 0.09,4.43 -2.57,5.47 q -3.87,1.52 -5.42,-2.33 -1.86,-4.6 -3.79,-9.16 z"
      id="path291" style="display:inline" inkscape:label="back-hands" />
   <path fill="#454545"
      d="m 875.79,722.55 c -4.07,11.58 -8.41,22.82 -15.01,33 q -1.32,2.03 -3.6,3.48 -0.5,0.32 -0.97,-0.05 c -2.61,-2.08 -1.53,-6.69 -0.45,-9.36 q 5.27,-13.01 10.45,-25.43 1.81,-4.36 4.29,-8.03 0.62,-0.92 1.74,-0.88 c 4.7,0.15 4.82,3.66 3.55,7.27 z"
      id="path294" style="display:inline" inkscape:label="back-hands" />
   <path fill="#454545"
      d="m 1409.03,720.33 c -1.15,-3.85 4.48,-7.35 6.5,-3.44 1.02,1.99 2.25,3.91 3.11,5.95 q 5.89,13.98 11.33,27.6 1.3,3.26 0.57,7.15 a 1.77,1.77 0 0 1 -2.76,1.12 c -3.33,-2.36 -6.22,-7.81 -8.08,-11.63 -4.21,-8.63 -7.92,-17.55 -10.67,-26.75 z"
      id="path295" style="display:inline" inkscape:label="back-hands" />
   <path fill="#454545"
      d="m 887.56,727.64 q -3.99,9.72 -9.96,19.13 -0.8,1.27 -2.1,1.97 a 0.74,0.74 0 0 1 -1.08,-0.76 q 1.91,-12.47 8.14,-23.5 2.02,-3.58 4.82,-5.9 a 0.94,0.94 0 0 1 1.47,0.36 c 1.15,2.7 -0.24,6.15 -1.29,8.7 z"
      id="path296" style="display:inline" inkscape:label="back-hands" />
   <path fill="#454545"
      d="m 1407.92,746.8 c -4.19,-6.47 -7.65,-13.37 -10.63,-20.61 q -1.4,-3.4 -0.83,-7.06 a 0.95,0.94 -66.3 0 1 1.52,-0.6 q 2.67,2.14 4.37,5.02 6.61,11.16 8.73,24.5 a 0.6,0.6 0 0 1 -0.81,0.65 q -1.51,-0.6 -2.35,-1.9 z"
      id="path297" style="display:inline" inkscape:label="back-hands" />
   <path fill="#454545"
      d="m 1031.34,630.56 q 8.17,-17.96 22.15,-29.52 0.57,-0.47 1.35,-0.78 c 0.63,-0.25 1.17,-0.54 1.88,-0.51 14.27,0.79 25.72,4.26 35.26,15.37 q 6.45,7.51 12.43,13.9 a 0.36,0.36 0 0 1 -0.21,0.6 c -34.24,5.14 -63.6,20.7 -83.41,49.12 q -0.77,1.1 -0.69,-0.24 1.54,-26.6 11.24,-47.94 z"
      id="path266" style="display:inline" inkscape:label="back-gluteal" />
   <path fill="#454545"
      d="m 1264.84,679.01 c -19.47,-28.27 -49.51,-44.62 -83.31,-49.28 a 0.48,0.48 0 0 1 -0.29,-0.79 q 6.39,-7.08 11.97,-13.48 c 9.56,-10.98 20.54,-14.92 34.76,-15.73 q 2.05,-0.11 3.56,1.07 c 22.85,17.9 32.44,49.93 33.85,78.03 q 0.06,1.04 -0.54,0.18 z"
      id="path267" style="display:inline" inkscape:label="back-gluteal" />
   <path fill="#454545"
      d="m 1092.12,758.09 q -11.32,3.91 -20.99,7.71 c -12.16,4.78 -21.24,13.16 -25.53,25.74 a 0.48,0.48 0 0 1 -0.84,0.14 c -13.74,-17.9 -25.37,-38.01 -28.48,-60.45 -4.82,-34.78 16.06,-62.1 45.13,-78.08 q 32.39,-17.79 71.37,-20.24 0.77,-0.05 0.81,0.72 0.34,5.98 0.51,12.21 0.73,27.38 0.54,74.62 0,0.87 -0.42,1.68 -13.36,26.01 -42.1,35.95 z"
      id="path274" style="display:inline" inkscape:label="back-gluteal" />
   <path fill="#454545"
      d="m 1186.16,755.14 q -22.34,-9.6 -34.37,-32.01 -0.93,-1.73 -0.95,-3.5 -0.44,-43.95 0.95,-86.05 a 0.58,0.58 0 0 1 0.61,-0.56 q 41.96,2.14 76.79,23.16 c 13.08,7.9 25.57,19.74 32.87,33.53 18.71,35.37 0.74,73.49 -21.32,101.95 a 0.51,0.51 0 0 1 -0.88,-0.15 c -5.18,-15.06 -16.82,-23.21 -31.43,-28.03 q -12.38,-4.09 -22.27,-8.34 z"
      id="path275" style="display:inline" inkscape:label="back-gluteal" />
   <path fill="#454545"
      d="m 1170.31,929.79 q -0.01,0.14 -0.14,0.14 h -0.01 q -0.15,0 -0.16,-0.15 c -1.65,-27.23 -6.7,-52.91 -12.71,-80.29 q -1.04,-4.77 -2.03,-9.9 -0.97,-5.04 -1.11,-10.04 -0.71,-25 0,-41.29 0.88,-20.1 6.78,-40.2 a 0.39,0.39 0 0 1 0.58,-0.23 c 9.66,5.72 22.47,11.93 28.7,21.66 q 0.95,1.49 1.03,4.47 c 0.23,9.46 -0.26,19.48 -1.78,29.2 q -3.09,19.91 -8.67,45.97 -4.33,20.25 -8.36,50.7 c -1.32,9.97 -1.83,19.78 -2.12,29.96 z"
      id="path306" style="display:inline" inkscape:label="back-adductors" />
   <path fill="#454545"
      d="m 1105.13,759.58 c 5.8,-4.09 12.22,-8.33 18.77,-11.59 a 0.54,0.54 0 0 1 0.76,0.34 q 6.8,24.08 7.01,48.83 0.14,15.6 -0.3,31.35 -0.18,6.57 -1.58,13.23 -3.79,18 -7.08,34.37 -5.52,27.39 -7.25,53.63 -0.01,0.2 -0.21,0.19 h -0.01 q -0.21,0 -0.21,-0.21 0.06,-11.05 -1.13,-21.98 -3.47,-31.95 -10.99,-67.96 c -3.17,-15.15 -5.96,-29.39 -7.82,-44.53 q -1.41,-11.59 -0.64,-23.56 c 0.24,-3.74 7.85,-10.11 10.68,-12.11 z"
      id="path307" style="display:inline" inkscape:label="back-adductors" />
   <path fill="#454545"
      d="m 1103.25,880.79 q 0.13,-2.03 0.52,-4.03 0.12,-0.59 0.23,0 6.54,34.5 9.4,71 1.16,14.9 0.83,30.46 c -0.35,16.42 -2.06,31.59 -8.52,45.43 q -0.65,1.38 -0.93,-0.12 -1.07,-5.81 -1.74,-12.63 c -4.13,-42 -2.61,-84.7 0.21,-130.11 z"
      id="path316" style="display:inline" inkscape:label="back-adductors" />
   <path fill="#454545"
      d="m 1182.66,888.38 c 3.02,46.17 3.96,90.2 -1.62,134.34 q -0.38,3.02 -1.62,0.24 -5.13,-11.5 -6.75,-24.8 -2.53,-20.86 -1.07,-43.33 2.55,-39.34 9.73,-77.33 0.48,-2.54 0.64,0.04 0.36,5.65 0.69,10.84 z"
      id="path317" style="display:inline" inkscape:label="back-adductors" />
   <path fill="#454545"
      d="m 1016.46,760.39 c 9.44,12.24 16.13,25.63 21.41,40.04 q 0.82,2.23 0.84,4.98 0.07,11.27 -2.12,20.02 -2.75,11.03 -6.86,22.65 -0.52,1.46 -0.85,-0.05 -5.74,-25.82 -9.75,-52.59 -2.71,-18.1 -3.52,-34.73 -0.08,-1.52 0.85,-0.32 z"
      id="path308" style="display:inline" inkscape:label="back-hamstring" />
   <path fill="#454545"
      d="m 1252.18,789.16 c 4.38,-10.33 10.1,-20.26 17.11,-29.06 q 0.66,-0.83 0.64,0.22 -0.05,2.47 -0.26,5.11 c -2.25,28.2 -7.17,55.27 -13.07,82.76 q -0.28,1.33 -0.76,0.06 -5.28,-13.81 -7.95,-27.73 c -1.27,-6.66 -2.21,-15.94 0.54,-22.48 q 1.91,-4.56 3.75,-8.88 z"
      id="path309" style="display:inline" inkscape:label="back-hamstring" />
   <path fill="#454545"
      d="m 1098.11,859.08 c 1.35,28.16 0.76,58.11 -0.79,88.31 q -0.29,5.81 -1.41,12.09 -3.22,18.13 0.59,38.78 0.25,1.36 -0.6,0.27 c -20.01,-25.52 -30.66,-57.27 -32.98,-89.64 -3.21,-44.66 6.94,-89.32 20.75,-132.24 q 0.55,-1.71 1.12,0 4.19,12.73 6.41,24.46 5.53,29.26 6.91,57.97 z"
      id="path310" style="display:inline" inkscape:label="back-hamstring" />
   <path fill="#454545"
      d="m 1222.33,911.18 c -2.52,31.89 -13.09,61.94 -32.73,87.27 q -0.72,0.94 -0.52,-0.23 2.27,-12.72 1.81,-27.27 -0.2,-6.27 -1.31,-11.44 -1.06,-4.94 -1.37,-9.68 -2.26,-34.73 -1.33,-78.46 0.82,-38.23 7.92,-73.18 2.24,-11.02 6.07,-21.84 0.39,-1.11 0.77,0.01 c 14.36,43.28 24.25,89.74 20.69,134.82 z"
      id="path311" style="display:inline" inkscape:label="back-hamstring" />
   <path fill="#454545"
      d="m 1070.52,797.23 c -11.68,27.55 -15.75,60.62 -14.27,91.04 q 0.39,8.01 2.12,18.82 4.13,25.86 6.66,45.29 c 2.03,15.61 1.65,31.91 -2.1,47.3 q -0.46,1.88 -0.63,-0.05 -1.63,-18.54 -5.82,-37.03 c -4.65,-20.57 -11.75,-43.58 -16.62,-63.37 -3.73,-15.15 -6.46,-30.31 -6.22,-45.8 q 0.49,-31.41 19.87,-55.13 c 2.88,-3.51 6.39,-5.98 9.88,-8.87 q 4.53,-3.74 10.3,-2.59 a 1.34,1.33 19.9 0 1 0.91,1.94 q -2.27,4.18 -4.08,8.45 z"
      id="path312" style="display:inline" inkscape:label="back-hamstring" />
   <path fill="#454545"
      d="m 1219.83,958.26 c 1.6,-16.19 4.52,-34.12 7.27,-51.04 q 1.66,-10.21 2.07,-18.85 1.54,-32.19 -5.11,-62.59 -4.38,-20.02 -13.16,-37.05 -0.74,-1.43 0.83,-1.82 c 6.74,-1.68 10.82,2.92 15.54,6.72 q 2.63,2.11 4.95,4.97 22.46,27.73 19.33,65.93 c -1.28,15.6 -4.64,30.53 -8.67,45.57 q -4.34,16.19 -8.51,30.94 -8.04,28.43 -11.39,59.02 -0.17,1.55 -0.51,0.03 -4.7,-20.89 -2.64,-41.83 z"
      id="path313" style="display:inline" inkscape:label="back-hamstring" />
   <path fill="#454545"
      d="m 1058.29,1085.75 c 6.08,-36.26 10.83,-64.98 13.27,-97.84 a 0.64,0.63 12.9 0 1 0.87,-0.54 c 4.34,1.73 9.74,5.17 11.34,9.62 q 0.48,1.32 0.33,3.57 c -2.18,33.02 -2.33,66.33 -2.21,98.92 q 0.04,10.61 0.89,19.22 2.51,25.4 2.71,52.08 c 0.09,12.28 -0.31,25.64 -3.38,37.51 q -0.44,1.7 -1.2,3.04 a 1.46,1.45 41.5 0 1 -2.43,0.15 c -11.56,-15.48 -22.57,-30.58 -27.04,-49.16 -1.94,-8.07 -1.22,-16.06 -0.32,-24.08 q 3.25,-29.05 7.17,-52.49 z"
      id="path324" style="display:inline" inkscape:label="back-calves" />
   <path fill="#454545"
      d="m 1234.23,1161.52 c -4.22,19.14 -15.78,34.23 -26.98,49.71 a 1.72,1.72 0 0 1 -3.01,-0.42 q -1.93,-5.29 -2.63,-11.11 -1.51,-12.55 -1.6,-22.65 -0.27,-28.3 2.59,-57.1 0.96,-9.64 1.02,-20.11 0.27,-52.48 -2.22,-101.41 c -0.04,-0.76 0.35,-1.89 0.76,-2.54 q 3.68,-5.85 11.13,-8.53 0.53,-0.19 0.58,0.37 2.93,37.23 10.25,79.5 c 4.59,26.56 9.04,54.75 11.1,81.03 q 0.51,6.47 -0.99,13.26 z"
      id="path325" style="display:inline" inkscape:label="back-calves" />
   <path fill="#454545"
      d="m 1092.9,1005.49 c 6.21,14.55 10.89,30.05 15.1,45.29 q 10.42,37.71 15.89,75.17 c 2.5,17.09 4.13,34.52 2.57,51.57 -0.69,7.55 -2.44,16.36 -7.25,22.3 a 0.72,0.71 31.3 0 1 -0.84,0.2 q -15.39,-6.63 -22.38,-22.48 -0.37,-0.84 -0.47,-1.77 -7.84,-73.34 -8.63,-146.47 -0.15,-13.23 1,-26.05 0.18,-2.03 0.73,-4.04 a 0.43,0.43 0 0 1 0.78,-0.13 q 2.25,3.5 3.5,6.41 z"
      id="path326" style="display:inline" inkscape:label="back-calves" />
   <path fill="#454545"
      d="m 1195.51,999.93 q 1.11,-2 1.54,0.25 0.83,4.43 1.06,9.07 0.79,16.08 0.37,32.68 -1.79,71.08 -8.41,133.14 c -0.54,5.01 -5.87,11.84 -9.39,15.76 -3.68,4.08 -8.74,6.74 -13.52,9.33 q -0.36,0.2 -0.63,-0.11 c -4.85,-5.52 -6.81,-14.78 -7.44,-21.9 -1.74,-19.58 0.51,-41.13 3.73,-60.68 q 6.55,-39.63 18.22,-79.21 3.88,-13.17 8.74,-26 2.41,-6.37 5.73,-12.33 z"
      id="path327" style="display:inline" inkscape:label="back-calves" />
   <path fill="#454545"
      d="m 1105.01,1296.15 c 0.31,-3.79 0.81,-7.66 0.78,-11.4 -0.13,-20.92 -0.61,-43.07 2,-63.38 0.83,-6.47 2.37,-14.24 6.84,-19.26 a 0.48,0.48 0 0 1 0.83,0.26 q 2,15.5 0.91,32.56 -1.2,18.89 -3.49,38.19 -1.15,9.79 -1.38,19.57 -0.5,21.82 -2.41,44.66 -0.8,9.48 -2.65,18.21 a 0.62,0.61 -66.5 0 1 -0.96,0.38 q -3.82,-2.71 -4.14,-6.62 -0.59,-7.27 0.39,-17.04 1.85,-18.46 3.28,-36.13 z"
      id="path334" style="display:inline" inkscape:label="back-calves" />
   <path fill="#454545"
      d="m 1170.98,1202.22 q 2.43,2.66 3.69,6.26 c 3.13,8.93 4.01,18.89 4.48,28.32 q 1.05,21.18 0.46,40.21 -0.29,9.19 0.45,16.73 1.84,18.75 3.59,37.51 0.69,7.41 0.77,15.52 0.06,5.8 -4.1,9 a 0.89,0.89 0 0 1 -1.42,-0.54 q -2.23,-11.91 -3.17,-25.71 -1.35,-19.53 -1.75,-36.62 -0.22,-9.41 -1.32,-18.68 -2.7,-22.94 -3.76,-42.69 -0.78,-14.6 1.04,-28.98 a 0.6,0.6 0 0 1 1.04,-0.33 z"
      id="path335" style="display:inline" inkscape:label="back-calves" />
   <path fill="#454545"
      d="m 1065.65,1205.72 q 0.18,-0.49 0.65,-0.28 0.57,0.24 0.99,0.74 c 7.66,9.08 12.41,22.27 15.49,34.01 q 4.92,18.73 7.73,38.56 5.06,35.68 6.15,72.03 0.14,4.75 0.25,9.3 0.09,3.29 -3.11,2.5 -0.29,-0.07 -0.59,-0.13 -3.27,-0.66 -3.31,-4 c -0.46,-33.25 -5.05,-66.1 -13.91,-98.69 q -4.29,-15.78 -9.2,-30.12 c -2.89,-8.45 -4,-15.96 -1.14,-23.92 z"
      id="path336" style="display:inline" inkscape:label="back-calves" />
   <path fill="#454545"
      d="m 1209.54,1220.37 q 3.46,-8.19 9.41,-14.95 a 0.5,0.49 56.8 0 1 0.84,0.18 q 1.93,5.91 1.63,12.13 -0.21,4.19 -2.73,11.81 -8.63,26.04 -13.9,49.21 -8.52,37.45 -9.27,80.13 -0.04,2.72 -2.68,3.4 -0.94,0.24 -1.91,0.38 -2.41,0.33 -2.37,-2.1 0.65,-35.68 4.84,-70.31 c 2.84,-23.48 7.15,-48.63 16.14,-69.88 z"
      id="path337" style="display:inline" inkscape:label="back-calves" />
   <path fill="#454545"
      d="m 1079.17,1372.43 q 2.14,-5.13 4.33,-10.15 0.64,-1.46 0.77,0.13 0.19,2.38 0.04,5.19 -0.48,8.92 -1.17,17.73 c -0.55,6.98 -0.51,14.62 0.97,21.25 q 0.81,3.6 3.17,7.55 2.42,4.04 6.98,2.53 2.09,-0.69 2.69,-2.94 c 5.05,-18.81 8.53,-32.57 10.08,-47.69 q 0.17,-1.71 0.65,-0.06 c 4.88,16.71 7.77,34.11 9.71,51.52 a 2.81,2.81 0 0 1 -0.55,2.02 c -5.24,7.01 -14.76,8.75 -23.07,8.71 -8.31,-0.03 -16.89,-1.11 -24.67,-3.97 -3.23,-1.19 -5.27,-5.26 -4.38,-8.25 4.42,-14.8 8.65,-29.67 14.45,-43.57 z"
      id="path342" style="display:inline" inkscape:label="back-feet" />
   <path fill="#454545"
      d="m 1206.8,1373.7 q 8.72,22.21 13.81,42.33 0.94,3.7 -1.71,6.53 -1.44,1.54 -5.28,2.63 -14.71,4.18 -29.01,2.49 -9.46,-1.11 -14.96,-6.81 -1.68,-1.75 -1.46,-3.83 2.75,-26.35 9.42,-50.74 0.68,-2.5 0.89,0.09 0.63,7.86 2.59,16.87 2.96,13.59 7.32,30.23 0.79,2.98 3.86,3.47 3.52,0.56 5.1,-1.58 c 2.84,-3.86 4.42,-8.89 4.83,-13.69 0.96,-11.15 -0.35,-22.32 -1,-33 q -0.2,-3.25 0.17,-6.56 0.09,-0.79 0.42,-0.07 2.74,5.83 5.01,11.64 z"
      id="path343" style="display:inline" inkscape:label="back-feet" />
</svg>